<?xml version="1.0" standalone="no"?>
<!DOCTYPE svg PUBLIC "-//W3C//DTD SVG 1.1//EN" "http://www.w3.org/Graphics/SVG/1.1/DTD/svg11.dtd" >
<!--
2013-9-30: Created.
-->
<svg>
<metadata>
Created by iconfont
</metadata>
<defs>

<font id="iconfont" horiz-adv-x="1024" >
  <font-face
    font-family="iconfont"
    font-weight="500"
    font-stretch="normal"
    units-per-em="1024"
    ascent="896"
    descent="-128"
  />
    <missing-glyph />
    
    <glyph glyph-name="x" unicode="x" horiz-adv-x="1001"
d="M281 543q-27 -1 -53 -1h-83q-18 0 -36.5 -6t-32.5 -18.5t-23 -32t-9 -45.5v-76h912v41q0 16 -0.5 30t-0.5 18q0 13 -5 29t-17 29.5t-31.5 22.5t-49.5 9h-133v-97h-438v97zM955 310v-52q0 -23 0.5 -52t0.5 -58t-10.5 -47.5t-26 -30t-33 -16t-31.5 -4.5q-14 -1 -29.5 -0.5
t-29.5 0.5h-32l-45 128h-439l-44 -128h-29h-34q-20 0 -45 1q-25 0 -41 9.5t-25.5 23t-13.5 29.5t-4 30v167h911zM163 247q-12 0 -21 -8.5t-9 -21.5t9 -21.5t21 -8.5q13 0 22 8.5t9 21.5t-9 21.5t-22 8.5zM316 123q-8 -26 -14 -48q-5 -19 -10.5 -37t-7.5 -25t-3 -15t1 -14.5
t9.5 -10.5t21.5 -4h37h67h81h80h64h36q23 0 34 12t2 38q-5 13 -9.5 30.5t-9.5 34.5q-5 19 -11 39h-368zM336 498v228q0 11 2.5 23t10 21.5t20.5 15.5t34 6h188q31 0 51.5 -14.5t20.5 -52.5v-227h-327z" />
    

    
    <glyph glyph-name="wancheng" unicode="&#58983;" d="M511.999488 831.240067c-247.102864 0-447.419146-200.316282-447.419146-447.418123S264.896624-63.596178 511.999488-63.596178 959.417611 136.71908 959.417611 383.821945 759.101329 831.240067 511.999488 831.240067zM511.999488-4.697743c-214.574007 0-388.519688 173.945681-388.519688 388.519688 0 214.572984 173.945681 388.518664 388.519688 388.518664s388.519688-173.945681 388.519688-388.518664C900.519176 169.248961 726.572472-4.697743 511.999488-4.697743zM781.455453 542.665673c-11.533684 11.467169-30.18037 11.414981-41.648562-0.118704l-3.89061-3.9121 0 0L459.750497 260.897288 352.963379 367.082702c-0.00614 0.00614-0.011256 0.01228-0.017396 0.01842l-34.426067 34.230616c-0.002047 0.002047-0.005117 0.005117-0.008186 0.008186l-2.13257 2.12029-0.107447-0.10847c-11.594059 9.395998-28.650527 8.67252-39.399335-2.137687-10.748808-10.809183-11.376095-27.869744-1.913583-39.409568l-0.107447-0.10847 14.374382-14.293541 22.191418-22.066575c0.005117-0.005117 0.010233-0.00921 0.014326-0.014326l122.411981-121.719202c0.001023-0.001023 0.001023-0.002047 0.002047-0.00307 0.002047-0.002047 0.004093-0.004093 0.007163-0.007163l0.728594-0.724501 0.01842 0.01842c14.486946-13.626345 37.274952-13.331633 51.386344 0.860601l4.629437 4.656043c0.030699 0.030699 0.059352 0.064468 0.089028 0.095167l256.610402 258.069637c0.00921 0.008186 0.01842 0.016373 0.026606 0.025583l34.231639 34.426067C793.040303 512.550795 792.988114 531.196457 781.455453 542.665673z"  horiz-adv-x="1024" />

    
    <glyph glyph-name="fanhui" unicode="&#58926;" d="M813.459378 895.693015c18.930748 0 37.759169-6.446687 52.085141-19.544719 28.8566-26.093734 28.8566-68.355351 0-94.346757L425.634856 384.051164 865.544519-13.699211c28.8566-26.093734 28.8566-68.253023 0-94.346757-28.651944-26.093734-75.31368-26.093734-104.067953 0L269.481763 336.877786c-29.061257 25.991406-29.061257 68.150695 0 94.244428L761.476566 876.148296C775.904867 889.143999 794.733287 895.693015 813.459378 895.693015"  horiz-adv-x="1024" />

    
    <glyph glyph-name="iconheji-" unicode="&#58920;" d="M513 831.844c-247.424 0-448-200.576-448-448s200.576-448 448-448c247.423 0 447.999 200.576 447.999 448s-200.576 448-447.999 448z m278.049-297.669L497.674 194.308c-5.933-6.873-14.305-10.398-22.724-10.398a29.879 29.879 0 0 0-19.589 7.291L238.058 378.776c-12.543 10.827-13.934 29.771-3.107 42.313 10.826 12.543 29.771 13.934 42.313 3.107l194.595-167.974 273.77 317.158c10.826 12.543 29.771 13.934 42.313 3.107 12.542-10.827 13.933-29.77 3.107-42.312z"  horiz-adv-x="1024" />

    
    <glyph glyph-name="wodetubiao--" unicode="&#58893;" d="M551.104-48.853333c-235.264 0-426.666667 191.402667-426.666667 426.666666s191.402667 426.666667 426.666667 426.666667 426.666667-191.402667 426.666667-426.666667-191.402667-426.666667-426.666667-426.666666z m0 793.792c-202.432 0-367.125333-164.693333-367.125333-367.125334s164.693333-367.125333 367.125333-367.125333 367.125333 164.693333 367.125333 367.125333S753.557333 744.938667 551.104 744.938667zM589.333333 577.984l-19.562666-258.666667a22.293333 22.293333 0 0 0-44.437334 0l-19.562666 258.666667a41.877333 41.877333 0 1 0 83.541333 6.314667c0.170667-2.048 0.149333-4.309333 0.021333-6.314667zM551.104 188.202667m-53.333333 0a53.333333 53.333333 0 1 1 106.666666 0 53.333333 53.333333 0 1 1-106.666666 0Z"  horiz-adv-x="1024" />

    
    <glyph glyph-name="right" unicode="&#58883;" d="M624.86499999 383.75300000000004l-292.15499999 292.159c-12.28 12.27-12.28 32.186 0 44.457 12.27 12.28 32.186 12.28 44.457 0l314.388-314.388c12.28-12.27 12.28-32.186 0-44.457l-314.388-314.387c-6.136-6.14-14.183-9.211-22.228-9.211s-16.092 3.071-22.228 9.211c-12.28 12.27-12.28 32.186 0 44.457l292.155 292.16z"  horiz-adv-x="1024" />

    
    <glyph glyph-name="canshushezhi" unicode="&#59076;" d="M302.3 534.2c-54.9 0-99.9 44.9-99.9 99.9 0 54.9 44.9 99.9 99.9 99.9 54.9 0 99.9-44.9 99.9-99.9 0-55-44.9-99.9-99.9-99.9z m0 149.8c-30 0-49.9-20-49.9-49.9 0-30 20-49.9 49.9-49.9 30 0 49.9 20 49.9 49.9 0.1 29.9-19.9 49.9-49.9 49.9z m0 0M302.3 34.9c-15 0-25 10-25 25V559.2c0 15 10 25 25 25s25-10 25-25v-499.3c0-15-10-25-25-25z m419.4 0c-54.9 0-99.9 44.9-99.9 99.9 0 54.9 44.9 99.9 99.9 99.9 54.9 0 99.9-44.9 99.9-99.9 0-54.9-44.9-99.9-99.9-99.9z m0 149.8c-30 0-49.9-20-49.9-49.9 0-30 20-49.9 49.9-49.9 30 0 49.9 20 49.9 49.9 0.1 29.9-19.9 49.9-49.9 49.9z m0 0M721.7 184.7c-15 0-25 10-25 25V709c0 15 10 25 25 25s25-10 25-25v-499.3c0-15-10-25-25-25zM522 34.9c-15 0-25 10-25 25V334.5c0 15 10 25 25 25s25-10 25-25v-274.6c0-15-10-25-25-25z m0 449.4c-15 0-25 10-25 25V709c0 15 10 25 25 25s25-10 25-25v-199.7c0-15-10-25-25-25z m0 0M522 309.5c-54.9 0-99.9 44.9-99.9 99.9 0 54.9 44.9 99.9 99.9 99.9 54.9 0 99.9-44.9 99.9-99.9 0-54.9-45-99.9-99.9-99.9z m0 149.8c-30 0-49.9-20-49.9-49.9 0-30 20-49.9 49.9-49.9 30 0 49.9 20 49.9 49.9 0.1 30-19.9 49.9-49.9 49.9z m0 0"  horiz-adv-x="1024" />

    
    <glyph glyph-name="qudaokaohe" unicode="&#59077;" d="M670.7 195.7H353.3c-3.1 0-6.2-1.3-8.4-3.5s-3.5-5.3-3.5-8.4V170c0-3.2 1.2-6.1 3.5-8.4 2.2-2.2 5.3-3.5 8.4-3.5h317.5c3.2 0 6.1 1.2 8.4 3.5 2.2 2.2 3.5 5.2 3.5 8.4v13.8c0 3.1-1.3 6.2-3.5 8.4-2.3 2.3-5.3 3.5-8.5 3.5zM488.2 355.1c2.2-2.2 5.2-3.5 8.4-3.5s6.1 1.2 8.4 3.5l146.4 146.4c2.2 2.2 3.5 5.2 3.5 8.4s-1.2 6.1-3.5 8.4l-9.8 9.8c-4.6 4.6-12.1 4.6-16.7 0L496.5 399.8l-69.7 69.7c-2.2 2.2-5.2 3.5-8.4 3.5-3.1 0-6.2-1.3-8.4-3.5l-9.8-9.8c-4.6-4.6-4.6-12.1 0-16.7l88-87.9zM797.3 669.3c-6.1 6.1-14.3 9.5-23 9.5h-91.7v22.7c0 8.7-3.4 16.9-9.5 23-6.1 6.1-14.3 9.5-23 9.5H374c-17.9 0-32.5-14.6-32.5-32.5v-22.7h-91.7c-8.7 0-16.9-3.4-23-9.5-6.1-6.1-9.5-14.3-9.5-23v-579.7c0-8.7 3.4-16.9 9.5-23 6.1-6.1 14.3-9.5 23-9.5h524.5c8.7 0 16.9 3.4 23 9.5 6.1 6.1 9.5 14.3 9.5 23V646.2c0 8.7-3.4 16.9-9.5 23.1z m-152.2-36.9c0-2.4-0.9-4.6-2.6-6.3-1.7-1.7-3.9-2.6-6.3-2.6H387.8c-2.4 0-4.6 0.9-6.3 2.6-1.7 1.7-2.6 3.9-2.6 6.3v55.2c0 2.4 0.9 4.6 2.6 6.3 1.7 1.7 3.9 2.6 6.3 2.6h248.4c2.4 0 4.6-0.9 6.3-2.6 1.7-1.7 2.6-3.9 2.6-6.3v-55.2zM374 586.1h276c8.7 0 16.9 3.4 23 9.5 6.1 6.1 9.5 14.3 9.5 23v22.7h77.9c2.3 0 4.6-0.9 6.3-2.6 1.7-1.7 2.6-3.9 2.6-6.3v-552.1c0-2.4-0.9-4.6-2.6-6.3-1.7-1.7-3.9-2.6-6.3-2.6H263.6c-2.4 0-4.6 0.9-6.3 2.6-1.7 1.7-2.6 3.9-2.6 6.3V632.4c0 4.9 4 8.9 8.9 8.9h77.9v-22.7c-0.1-17.9 14.5-32.5 32.5-32.5zM341.4 266.7c0-3.1 1.3-6.2 3.5-8.4s5.3-3.5 8.4-3.5h317.5c3.2 0 6.1 1.2 8.4 3.5 2.2 2.2 3.5 5.3 3.5 8.4v13.8c0 3.1-1.3 6.2-3.5 8.4s-5.2 3.5-8.4 3.5H353.3c-3.1 0-6.2-1.3-8.4-3.5s-3.5-5.3-3.5-8.4v-13.8z"  horiz-adv-x="1024" />

    
    <glyph glyph-name="fandian" unicode="&#59078;" d="M346.2 460.7c0 42.2 29.6 76.5 66.1 76.5 36.6 0 66.1-34.2 66.1-76.5s-29.6-76.4-66.1-76.4c-36.5 0-66.1 34.1-66.1 76.4z m99.2 0c0 23.5-14.8 42.5-33.1 42.5-18.2 0-33.1-19-33.1-42.5 0-23.4 14.8-42.5 33.1-42.5s33.1 19 33.1 42.5z m231.4-135.9c0-42.2-29.6-76.5-66.1-76.5-36.6 0-66.2 34.2-66.2 76.5 0 42.2 29.7 76.4 66.2 76.4 36.6 0 66.1-34.2 66.1-76.4z m-99.1 0c0-23.5 14.8-42.5 33.1-42.5s33.1 19 33.1 42.5c0 23.4-14.8 42.5-33.1 42.5s-33.1-19.1-33.1-42.5z m-163.2-79.2l165.4 294.3 28.6-17-165.3-294.3-28.7 17z m97.1-211.1c-83.9 0-160.6 29.9-220.8 79.2-10.3 10.3-18.8 21.9-8.7 32.8 16.4 17.9 35.3-4.7 35.3-4.7 53.3-42.8 120.7-68.4 194.3-68.4 171.7 0 310.9 139.2 310.9 310.9S683.4 695.2 511.7 695.2 200.8 556 200.8 384.3c0-56.7 15.4-109.7 41.9-155.4 0 0 3.9-14.8-9.8-20.4-19.8-8-34.2 20.4-34.2 20.4-23.4 46.8-36.9 99.5-36.9 155.4 0 193.2 156.6 349.7 349.7 349.7 193.2 0 349.7-156.6 349.7-349.7 0.2-193.3-156.4-349.8-349.6-349.8z m0 0"  horiz-adv-x="1024" />

    
    <glyph glyph-name="jigou" unicode="&#59079;" d="M817.8 100.1h20.4c13.6-0.1 23.3-9.1 23.3-21.8 0-12.6-9.8-21.8-23.3-21.8H185.5c-12.2 0-21.5 7.3-23.1 18.1-1.7 11.5 4.7 21.7 15.7 24.7 2.4 0.7 5.1 0.7 7.6 0.8 6.5 0.1 13 0 20.2 0v6.5 538.9c0 31.8 20.3 57.9 50.6 65 5.2 1.2 10.8 1.7 16.2 1.7 101.1 0.1 202.2 0.1 303.2 0.1 38.7 0 67.1-28.6 67.1-67.4v-544.3h131c0.1 1.5 0.2 3.1 0.2 4.7V425.8c0 15.4-8.8 24.3-24.1 24.3-13.9 0-27.8-0.1-41.7 0.1-11.5 0.2-20.3 8.4-21.6 19.8-1.2 10.3 5.9 20.4 16.4 23.1 2.2 0.6 4.5 0.6 6.7 0.6 13.9 0.1 27.8 0.1 41.7 0 37.5-0.1 66.3-28.8 66.3-66.4 0.1-107 0-213.9 0-320.9-0.1-2.1-0.1-4-0.1-6.3z m-568.5 0.2H599c0.1 1.7 0.2 3.2 0.2 4.7V644.4c0 15.1-8.9 24-23.9 24H273c-2.4 0-4.9-0.1-7.2-0.7-10.7-2.8-16.4-11.2-16.4-24v-538.5c-0.1-1.4-0.1-2.9-0.1-4.9z m175.1 459c-21.5 0-42.9-0.1-64.3 0-12 0.1-20.8 6.9-22.8 17.4-2.7 14.1 7.4 26.2 22 26.3 23.1 0.1 46.2 0 69.3 0 20.2 0 40.5 0.1 60.7 0 9.8 0 17.9-5.8 21-14.4 3.1-8.6 0.5-18.3-6.5-24.3-4.8-4-10.4-5.1-16.5-5.1-21 0.1-41.9 0.1-62.9 0.1z m-0.4-109.4c-21.6 0-43.2-0.1-64.8 0-14.6 0.1-24.6 12.2-22 26.3 1.8 9.7 10.4 17.2 20.5 17.2 44.3 0.1 88.5 0.1 132.8 0 11.9 0 21-9.7 21-21.6 0-12.2-9.3-21.8-21.8-21.9-21.9-0.1-43.8 0-65.7 0z m-0.1-175c22.2 0 44.4 0.2 66.6-0.1 15.9-0.2 26-17 18.9-31.2-4.2-8.5-11.5-12.4-21-12.4h-130c-12.1 0.3-21.6 9.8-21.7 21.7-0.1 11.9 9.4 21.7 21.4 21.8 22 0.4 43.9 0.3 65.8 0.2z m0.2 65.8c-21.6 0-43.2-0.1-64.8 0-16.2 0.1-26.8 15.1-21 29.6 3.6 9.1 10.7 14 20.3 14 43.6 0.2 87.3 0.2 130.9 0 12.8-0.1 22.1-9.8 22-22.2-0.1-12.2-9.4-21.3-22.2-21.4-21.7-0.1-43.5 0-65.2 0z m0 0"  horiz-adv-x="1024" />

    
    <glyph glyph-name="jiaoseguanli" unicode="&#59080;" d="M675.8 278.3c-38 0-68.9-30.9-68.9-68.9 0-38 30.9-68.9 68.9-68.9 38 0 69 30.9 69 68.9 0 38-31 68.9-69 68.9z m0-102.3c-18.4 0-33.4 15-33.4 33.4s15 33.4 33.4 33.4c18.5 0 33.4-15 33.4-33.4S694.3 176 675.8 176z m182.4 69.4c-2.6 13.6-11.4 22.5-22.6 22.5H834c-21.5 0-39 17.5-39 39 0 5.7 2.4 12.6 3.4 14.7 5.3 12 1.2 26.7-10.6 34.9l-45.7 25.3c-3.6 1.5-7.4 2.3-11.5 2.3-8.3 0-16.5-3.4-21.9-9-5.7-5.9-20.8-18-31.2-18-10.5 0-25.7 12.3-31.4 18.3-5.5 5.7-13.7 9.2-22.1 9.2-4 0-7.8-0.8-11.2-2.2l-0.9-0.4-46.5-25.5-1.1-0.7c-10.8-7.5-14.9-22.2-9.6-34.1 0.4-0.8 3.5-8.4 3.5-14.9 0-21.5-17.5-39-39.1-39h-1.8c-11 0-19.8-8.8-22.4-22.5-0.4-2.1-3.9-21-3.9-36.2 0-15.3 3.5-34.1 3.9-36.2 2.6-13.6 11.4-22.5 22.6-22.5h1.5c21.5 0 39.1-17.5 39.1-39 0-5.6-2.5-12.6-3.4-14.8-5.3-12-1.2-26.7 10.6-34.9l44.8-24.9c3.6-1.5 7.4-2.3 11.5-2.3 8.4 0 16.7 3.5 22.1 9.4 5.5 6 21.2 19.1 31.9 19.1 10.8 0 26.3-13.1 32.1-19.5 5.4-6 13.7-9.5 22.2-9.5 4 0 7.8 0.8 12.4 2.8l45.3 25 1.1 0.7c10.8 7.5 14.9 22.2 9.6 34.1-0.3 0.8-3.4 8.4-3.4 14.9 0 21.5 17.5 39 39 39h1.8c11 0 19.8 8.8 22.4 22.4 0 0.2 3.9 20.2 3.9 36.3 0 15.3-3.5 34.1-3.8 36.2z m-34-60c-36.8-4.8-64.8-36.2-64.8-73.9 0-8.7 2.1-16.9 3.9-22.6l-32.7-18c-2.9 2.9-7.6 7.2-13.4 11.5-14.5 10.7-28.4 16.2-41.6 16.2-13 0-26.9-5.4-41.2-15.9-5.7-4.2-10.4-8.4-13.4-11.3l-31.2 17.5c1.9 5.6 4 13.9 4 22.6 0 37.7-28 69.1-64.8 73.9-0.9 6.1-2.3 16-2.3 23.8 0 7.9 1.3 17.8 2.3 23.8 36.8 4.8 64.8 36.2 64.8 73.9 0 8.6-2.1 16.9-3.9 22.5l33.7 18.5c2.9-2.8 7.6-6.9 13.4-11 14.2-10.1 27.8-15.2 40.6-15.2 12.6 0 26.2 5 40.2 14.9 5.7 4 10.4 8 13.3 10.8l32.3-17.9c-1.9-5.6-4-13.9-4-22.6 0-37.7 28-69.1 64.8-73.9 1-6.2 2.3-16.1 2.3-23.8 0-7.8-1.3-17.7-2.3-23.8zM208.1 84.5v39c0 132.7 102.4 242 232.9 254.4h0.3c8 0.7 16.1 1.2 24.3 1.2 1.2 0 2.4-0.1 3.7-0.1 28.8 2.2 72.5 9 95.3 29.4l11.2 8.7c43.6 34.1 68.6 84.9 68.6 139.5 0 97.9-80.2 177.5-178.9 177.5-98.6 0-178.9-79.6-178.9-177.5 0-54.6 25-105.5 68.6-139.5l11.2-8.7-13.2-5.2C237.1 357 162 247.3 162 123.5v-61.9c0-12.6 10.3-22.8 23-22.8h336.8c-11 14-20.3 29.3-27.9 45.7H208.1z m124.6 472c0 72.7 59.6 131.8 132.8 131.8 73.2 0 132.8-59.1 132.8-131.8 0-72.7-59.6-131.8-132.8-131.8-73.2 0-132.8 59.1-132.8 131.8z m0 0"  horiz-adv-x="1024" />

    
    <glyph glyph-name="shouye" unicode="&#59081;" d="M423.7 459.6c4.6-41 37.1-73.5 78.2-78.1v78.1h-78.2z m98.2 0v-78.1c41.1 4.6 73.6 37.1 78.2 78.1h-78.2z m-98.2 20.2h78.2V558c-41-4.8-73.6-37.3-78.2-78.2z m98.2 0h78.2c-4.6 41-37.1 73.5-78.2 78.2v-78.2z m334.3-80c-3.9 8.9-9.1 16.9-15.8 23.6L574.6 689.2c-8.5 8.5-18.2 15-28.8 19.1-21.4 8.9-46.3 8.9-68 0-10.6-4.3-20.2-10.8-28.8-19.1L183.4 423.4c-7.1-7.1-12.3-15-15.8-23.8-3.3-8-5.4-17.1-5.8-26.2l0.2-2c0-8.2 1.1-15.6 3.3-22.5 2.2-6.3 5.2-11.9 8.9-16.7l1.7-2.2c4.6-5.9 11.3-11.1 19.1-14.7 6.9-3.3 14.9-5 24-5.2h11.5V144c0.2-24.1 9.7-46.8 26.6-63.9 17.1-17.1 39.8-26.4 63.9-26.4l131-0.2v222c0 3.2 1.3 6.1 3.7 8.5l2.6 1.9c1.5 1.1 3.5 1.7 5.9 1.7h95.3c3.2 0 6.1-1.3 8.4-3.5 2.2-1.9 3.7-5 3.7-8.5v-222l131.1 0.2c24.1 0 46.8 9.3 63.9 26.4 17.1 17.1 26.6 39.8 26.6 63.9v166h11.3c8.5 0 17.1 1.9 24.2 5.2 7.6 3.3 14.1 8.4 19.1 14.9l1.9 2.4c3.7 5 6.5 10.2 8.4 16l0.4 0.6c2.2 7.2 3.3 14.9 3.3 22.1 0 9.4-1.9 19.2-5.6 28.5z m-42.3-34l-0.2-0.7c-0.4-1.9-0.9-3-1.5-3.9l-0.4-0.6-3.3-2.8-2.6-0.4-60-0.2V144c0-11.1-4.6-22.3-12.8-30.5-8-8-18.9-12.6-30.3-12.6H619V275.6c0 16-6.3 31-17.5 42.2-11.3 11.1-26.2 17.3-42 17.3h-95.3c-16 0-30.8-6.1-42-17.3-11.3-11.1-17.5-26-17.5-42.2V101h-83.8c-11.3 0-22.5 4.6-30.5 12.6-8.2 8.2-12.8 19.3-12.8 30.5V357.3l-60.6 0.2-4.6 2-1.1 1.9c-0.4 0.7-0.6 1.5-1.1 2.4l-0.2 0.9c-0.6 1.9-0.9 4.3-0.9 6.3 0 3.5 0.6 6.9 2 10.6 0.9 2.8 3 5.9 5.4 8.2l1.1 0.9 264.7 265.1c4.1 3.9 8.5 6.9 13.6 9.1 10.4 3.9 21 3.9 31.6 0 5.4-2.4 9.8-5.4 13.6-9.1L807 390c2.6-2.4 4.5-5.4 5.6-8.7 1.3-3 2-6.5 2-10 0-1.9-0.2-3.8-0.7-5.5z m-23.4 298v-130.2l-88.1 88.2v42c0 9.3 7.4 16.9 16.7 16.9h54.6c9.3 0 16.8-7.6 16.8-16.9z m0 0"  horiz-adv-x="1024" />

    
    <glyph glyph-name="yonghu" unicode="&#59082;" d="M512 34c-193.2 0-350 156.8-350 350s156.8 350 350 350 350-156.8 350-350-156.8-350-350-350z m0 660.8c-170.8 0-310.8-140-310.8-310.8s140-310.8 310.8-310.8 310.8 140 310.8 310.8-140 310.8-310.8 310.8z m0 0M307.6 132L274 146c11.2 25.2 42 39.2 78.4 56 36.4 16.8 78.4 36.4 78.4 58.8v30.8c-11.2 11.2-33.6 33.6-36.4 67.2-11.2 8.4-28 28-28 53.2 0 14 5.6 25.2 11.2 33.6-2.8 16.8-8.4 47.6-8.4 72.8 0 81.2 56 131.6 142.8 131.6 25.2 0 56-5.6 72.8-25.2 39.2-5.6 70-53.2 70-109.2 0-33.6-5.6-64.4-11.2-78.4 2.8-5.6 8.4-16.8 8.4-28 0-28-14-44.8-25.2-53.2-2.8-33.6-22.4-56-33.6-64.4v-30.8c0-19.6 36.4-33.6 70-44.8 39.2-14 81.2-30.8 92.4-64.4l-33.6-14c-5.6 16.8-39.2 30.8-70 42-44.8 16.8-95.2 36.4-95.2 81.2V314l8.4 5.6s25.2 16.8 25.2 50.4v14l11.2 5.6c2.8 0 14 8.4 14 25.2 0 5.6-2.8 11.2-5.6 14l-8.4 8.4 2.8 11.2s11.2 33.6 11.2 75.6c0 36.4-19.6 70-42 70h-11.2l-5.6 8.4c-2.8 5.6-22.4 14-44.8 14-64.4 0-103.6-36.4-103.6-95.2 0-28 8.4-72.8 11.2-72.8l2.8-11.2-11.2-11.2s-5.6-5.6-5.6-14c0-11.2 14-25.2 19.6-28l8.4-5.6v-8.4c0-30.8 28-50.4 28-50.4l8.4-5.6v-53.2c0-47.6-53.2-72.8-100.8-95.2-25.2-11.2-56-25.2-61.6-33.6z m0 0"  horiz-adv-x="1024" />

    
    <glyph glyph-name="yonghuchaxun" unicode="&#59083;" d="M422.9 484.3H271.8c-7.3 0-13.4 6.1-13.4 13.4 0 7.3 6.1 13.4 13.4 13.4H423c7.3 0 13.4-6.1 13.4-13.4-0.1-7.4-6.2-13.4-13.5-13.4z m0-59.9H271.8c-7.3 0-13.4 6.1-13.4 13.5 0 7.3 6.1 13.4 13.4 13.4H423c7.3 0 13.4-6 13.4-13.4-0.1-7.5-6.2-13.5-13.5-13.5zM417 656.7H261c-29.5 0-53.5-23.9-53.5-53.3v-289.2h132.1c54.4 0 98.7-44.3 98.7-98.8v-127.2h182.4c29.5 0 53.4 23.9 53.4 53.4V288.1c0 12.6 10.2 22.8 22.7 22.8 12.6 0 22.8-10.2 22.8-22.8v-146.4c0-54.6-44.3-98.9-98.9-98.9H409.3c-6.1 0-11.7 2.4-16 6.6L168.6 273.1c-4.3 4.2-6.6 10.1-6.6 16.1V603.4c0 54.5 44.3 98.9 98.9 98.9h156c12.6 0 22.9-10.2 22.9-22.8 0-12.5-10.2-22.8-22.8-22.8z m-23.8-543.1V215.4c0 29.7-24.1 53.7-53.6 53.7H237.1l156.1-155.5z m0 0M855.5 388.8L770 474.3c20.5 26.4 32.8 59.6 32.8 95.6 0 86.2-69.8 156.1-156.1 156.1-86.2 0-156-69.9-156-156.1 0-86.2 69.8-156 156-156 36 0 69.3 12.2 95.7 32.8l85.6-85.6c3.8-3.8 8.8-5.8 13.8-5.8s10 1.9 13.8 5.8c7.7 7.7 7.7 20.1-0.1 27.7zM529.8 570c0 64.6 52.5 117 116.9 117 64.6 0 117-52.5 117-117s-52.5-117-117-117-116.9 52.5-116.9 117z m0 0"  horiz-adv-x="1024" />

    
    <glyph glyph-name="caidan" unicode="&#59084;" d="M596.9 78.8l147.8 150.1-75.6 77.2L516.9 154l-1.5-9.3 77.7-66.2 3.8 0.3z m180.9 183.8c9.9 10 20.1 19.8 29.7 30.1 7.2 7.8 16.9 15.8 19.4 26.5 1.9 8.1-2.1 12.5-7.5 17.9-10.1 10.1-20.3 20.2-30.4 30.3-4.5 4.4-8.9 8.9-13.4 13.3-11 11-27.3 4.9-36.7-4.9-15.2-15.7-31.1-30.8-46.5-46.2l78.2-74.2c2.4 2.3 4.8 4.8 7.2 7.2zM492.2 40.7L558 69l-53.7 44-22.3-53.2-6.8-24.7 17 5.6z m-283.5 36.6c-6.9 0-12.5-9.5-12.5-21.2s5.6-21.2 12.5-21.2h225.4c6.9 0 12.5 9.5 12.5 21.2s-5.6 21.2-12.5 21.2H208.7z m120 505h264.8c10.5 0 18.9 8.5 18.9 18.9 0 10.4-8.4 18.9-18.8 18.9H328.7c-10.5 0-18.9-8.5-18.9-18.9 0-10.4 8.5-18.9 18.9-18.9z m0-113h264.8c10.5 0 18.9 8.5 18.9 18.9 0.1 10.4-8.4 18.9-18.8 18.9H328.7c-10.5 0-18.9-8.5-18.9-18.9 0-10.4 8.5-18.9 18.9-18.9z m0 0M502.8 189.7L461 222.9l-75.7-60.3-75.7 60.3-75.6-57.8V658c0 20.9 16.9 37.8 37.8 37.8h378.3c20.9 0 37.8-16.9 37.8-37.8v-291.7l37.9 36.1V658c0 41.8-33.9 75.7-75.6 75.7H271.9c-41.8 0-75.7-33.9-75.7-75.7v-529.6h35.4l78.2 56.7 75.7-56.7 75.7 56.7 20.6-15.4 21 20z m0 0M328.7 355.4h264.8c10.5 0 18.9 8.5 18.9 18.9 0.1 10.4-8.4 18.9-18.8 18.9H328.7c-10.5 0-18.9-8.5-18.9-18.9 0-10.5 8.5-18.9 18.9-18.9z m0 0"  horiz-adv-x="1024" />

    
    <glyph glyph-name="xitongguanli" unicode="&#59085;" d="M826.1 675.4h-625c-22.7 0-39.8-11.4-39.8-34.1v-403.4c0-17 17-34.1 34.1-34.1h250l-5.7-73.9h-45.5c-17 0-28.4-22.7-28.4-39.8h295.5c5.7 11.4-11.4 39.8-28.4 39.8h-51.1l-5.7 73.9h250c17 0 34.1 17 34.1 34.1V641.3c5.7 22.7-11.3 34.1-34.1 34.1z m-17-397.7H223.8V629.9h585.3v-352.2z m0 0M371.6 504.9c11.4 0 22.7 5.7 28.4 11.4 5.7 5.7 11.4 17 11.4 28.4 0 11.4-5.7 22.7-11.4 28.4-5.7 11.4-17 11.4-28.4 11.4-5.7 0-17 0-28.4-11.4-5.7-5.7-11.4-17-11.4-28.4 0-11.4 5.7-22.7 11.4-28.4 11.3-5.7 22.7-11.4 28.4-11.4z m164.8-51.1h170.5v-113.6H536.4V453.8z m0 113.6h170.5V556H536.4v11.4z m0-22.7h170.5v-11.4H536.4v11.4z m-210.3-90.9h170.5v-11.4H326.1v11.4z m0-28.4h170.5V414H326.1v11.4z m0-22.7h170.5v-11.4H326.1v11.4z m0-28.4h170.5v-11.4H326.1v11.4z m0-22.8h170.5v-11.4H326.1v11.4z m0 0"  horiz-adv-x="1024" />

    
    <glyph glyph-name="qudaoguanli" unicode="&#59086;" d="M518.2 140.1c-4.5 1.4-9.4-0.9-10.7-1.6l-46.6-21.7c-2.3-0.7-4.6-1.2-6-1.2-4.2 0-7.9 1.8-9.9 4.8l-0.2 0.3c-12 15.5-32.7 22.6-52.8 18.3-19.2-4.2-34.5-19.8-39.1-39.8v-0.1c-4.1-20.9 4.4-42 21.7-53.8 8.8-6 18.7-9 28.9-9 10.7 0 21.8 3.3 32.1 9.9l0.1 0.1c12.9 8.6 20.2 23.2 20.2 40.2 0 5.4 3.7 10.6 8.9 12.4 6.5 1.7 38.5 16 52.3 22.2l0.2 0.1c0.4 0.2 2.5 1.3 4.3 3.2 3.1 3.4 3.8 7.5 1.9 11.3-1.1 2.1-2.9 3.7-5.3 4.4zM483.5 321.3l14.8-6.2c1.5-0.7 3.1-1 4.6-1 4.3 0 8.5 2.4 10.5 6.5 1.3 2.6 1.5 5.6 0.6 8.5-1 3-3.1 5.5-5.9 6.8l-0.2 0.1-207.5 83.8c-4.2 2.1-6.6 4.4-7.5 7.2-1.2 3.6-1.2 7.1-0.1 10.7 3.9 8.7 5.8 17.8 5.8 27.7v5.1c-0.6 5.7 3 11.2 8.2 12.7h0.1c9.2 3.1 99.2 41.8 186 79.2l1.7 0.8L524 576c46.3 19.9 83 35.6 91.5 38.9 2 0.7 3.9 1.3 5.4 1.3 4.1 0 8.1-1.7 10.2-4.4l0.2-0.2c18.9-21.5 48.6-30.1 75.7-21.9 25 7.5 44.7 30.2 48.9 56.5 3.6 22.9-3.5 45.4-19.7 61.8-16 16.3-38.3 23.8-61.2 20.6-35.6-5.1-63.9-41.1-60.7-77.2v-1.1c0.6-5.6-2.9-11.5-8-13.7L301.9 502.1c-1.9-0.6-3.8-1.2-5.2-1.2-4.4 0-8.4 2.1-10.7 5.6l-0.1 0.1c-19.2 27-54.2 37.4-85 25.3-23.2-9.1-40.4-31-43.9-55.7-3.2-23.8 5.3-47.5 22.9-63.5 17.5-15.9 41-21.9 64.6-16.5 8 1.5 14.5 5.2 20.7 8.8 1.1 0.7 2.3 1.3 3.4 1.9l0.3 0.2c1.4 1 3.6 1.5 5.8 1.5 2.2 0 3.9-0.5 6-1.2 12.2-5.7 84.4-36.2 148.1-63 20.5-8.7 39.6-16.7 54.7-23.1zM684.3 413.9c-100.4 0-182-81.3-182-181.2s82-181.2 182.8-181.2c99.9 0 181.2 81.3 181.2 181.2s-81.6 181.2-182 181.2z m161.9-181.2c0-88.8-72.2-161-161-161-89.7 0-162.6 72.2-162.6 161s72.6 161 161.8 161c89.2 0 161.8-72.2 161.8-161zM685.1 338.4c-28.2 0-50.9-24.3-50.9-54 0-29.8 18-73.6 50.9-73.6s50.9 43.9 50.9 73.6c0.8 29-22.7 54-50.9 54z m94.8-195.8v15.7c0 6.3-3.1 10.2-7 16.4-11 14.9-25.1 14.1-43.9 20.4l-17.2-46.2c0-6.3-3.1-3.9-9.4-3.9-6.3 0-9.4 2.4-9.4 7.8v25.1c0 7.8-0.8 17.2-9.4 17.2-7 0-9.4-9.4-9.4-17.2V152c0-6.3-3.1-7.8-9.4-7.8-6.3 0-9.4-2.4-9.4 3.9l-17.2 46.2c-18.8-6.3-32.9-4.7-43.9-20.4-3.9-6.3-7.1-9.4-7.1-16.4v-18c0-11.7 4.7-13.3 17.2-13.3H758c11.7 0 20.4 0.8 20.4 13.3v3.1h1.5z m0 0"  horiz-adv-x="1024" />

    
    <glyph glyph-name="renzhengshibai" unicode="&#59087;" d="M512 34c-193.3 0-350 156.7-350 350s156.7 350 350 350 350-156.7 350-350-156.7-350-350-350z m-27.8 540.9l8-262.5H532l8 262.5h-55.8zM512 284.6c-11.3 0-21.4-6.8-25.7-17.2-4.3-10.4-1.9-22.4 6-30.3 8-8 19.9-10.3 30.3-6 10.4 4.3 17.2 14.5 17.2 25.7 0 7.4-2.9 14.5-8.2 19.7-5.1 5.1-12.2 8.1-19.6 8.1z m0 0"  horiz-adv-x="1024" />

    
    <glyph glyph-name="maozi" unicode="&#59088;" d="M862 208.9c0 137.6-29.2 196.2-32.1 201.8-15.8 36.6-48 64.2-96 82.1-37.9 14.1-79.5 19.7-110.4 21.8 0.1 1.2 0.2 2.4 0.2 3.7 0 20.5-16.8 37.1-37.4 37.1-20.6 0-37.4-16.7-37.4-37.1 0-1.2 0.1-2.5 0.2-3.7-35.1-1.7-67-8.1-95.1-19.1L280.1 641.8c-12.2 10.2-30.3 8.7-40.5-3.5s-8.7-30.3 3.5-40.5l157.3-132.3c-23.1-17.8-42.4-40.2-57.5-67.1-32.5-57.8-38.5-124.4-38.8-163.4H186.2c-13.4 0-24.2-10.9-24.2-24.2 0-13.4 10.9-24.2 24.2-24.2H732l71.8-60.3c5.4-4.5 12-6.7 18.5-6.7 8.2 0 16.3 3.5 22 10.2 10.2 12.2 8.7 30.3-3.5 40.5l-19.4 16.3H862v22.3z m-154.3 73.2c-0.2 5.4-5.4 120.9-48.8 183.1 41.5-8 88.8-23.7 112.5-54.6 0.1-0.1 10.8-14.2 21.3-42.1 17.6-46.8 21.3-96.1 21.3-129.1v-4.3h-50.2l-56.1 47z m-192 43.9l-40.1 54c-3.8 6.3-10.6 10-17.9 9.7h-0.6c-10.3 0-18.7-8.9-18.7-19.8v-97.2c0-10.9 8.4-19.8 18.7-19.8 10.3 0 18.7 8.9 18.7 19.8v39.7l40.1-54c2.7-4.5 7-7.7 12-9.1 1.7-0.5 3.5-0.7 5.2-0.7 3.5 0 7 0.9 10.1 2.8 6.8 4 10.6 11.6 9.9 19.4 0.1 0.7 0.1 1.3 0.1 1.9v64.4l107.6-90.5c-0.2-3.3-0.3-6.7-0.6-10v-1.5H354.4c-0.3 10.8-0.3 32.9 3.9 59.4 5.4 34.1 19.1 82.6 53.4 119.9 7.3 8 15.3 15.2 24 21.6l80-67.3V326z m-23.8 137.7c22.6 6.8 47.9 10.2 75.6 10.2h0.1c0.1 0 6.1 0.1 16-0.3 15.2-11.8 35.9-32.9 52.2-68.7 10.8-23.8 18.2-50.8 22.2-80.9L491.9 463.7z"  horiz-adv-x="1024" />

    
    <glyph glyph-name="paizhengmian" unicode="&#59089;" d="M630 408.1c-26.1 0-47.2 21.1-47.2 47.2s21.1 47.2 47.2 47.2 47.2-21.1 47.2-47.2c0.1-26.2-21.1-47.2-47.2-47.2z m-235.9-94.4h236c0-52.2-52.8-94.4-117.9-94.4-65.2 0-118.1 42.2-118.1 94.4z m0 94.4c-26.1 0-47.2 21.1-47.2 47.2s21.1 47.2 47.2 47.2 47.2-21.1 47.2-47.2c0-26.2-21.2-47.2-47.2-47.2M194.8 450.1c-18.2 0-32.8 14.6-32.8 32.8V660.6c0 40.8 33.1 73.9 73.9 73.9h177.5c18.2 0 32.8-14.6 32.8-32.8 0-18.2-14.6-32.8-32.8-32.8H235.9c-4.6 0-8.3-3.7-8.3-8.3v-177.8c0-18.1-14.6-32.7-32.8-32.7z m218.8-415.7H235.9c-40.8 0-73.9 33.1-73.9 73.9V286.4c0 18.2 14.6 32.8 32.8 32.8 18.2 0 32.8-14.6 32.8-32.8v-178.1c0-4.6 3.7-8.3 8.3-8.3h177.8c18.2 0 32.8-14.6 32.8-32.8s-14.7-32.8-32.9-32.8z m374.6 0H609.9c-18.2 0-32.8 14.6-32.8 32.8s14.6 32.8 32.8 32.8h178.3c4.6 0 8.3 3.7 8.3 8.3V286.8c0 18.2 14.6 32.8 32.8 32.8 18.2 0 32.8-14.6 32.8-32.8v-178.5c0-40.8-33.1-73.9-73.9-73.9z m41.1 416.4c-18.2 0-32.8 14.6-32.8 32.8v177c0 4.6-3.7 8.3-8.3 8.3H609.9c-18.2 0-32.8 14.6-32.8 32.8 0 18.2 14.6 32.8 32.8 32.8h178.3c40.8 0 73.9-33.1 73.9-73.9v-177c0-18.1-14.7-32.8-32.8-32.8z m0 0"  horiz-adv-x="1024" />

    
    <glyph glyph-name="guangzhao" unicode="&#59090;" d="M511.7 182.8c-96.1 0-178.8 67.9-197.5 162.1-18.7 94.2 31.7 188.6 120.4 225.3 88.7 36.8 191.1 5.7 244.5-74.2 53.4-79.9 42.9-186.3-25-254.3-37.7-37.8-89-59-142.4-58.9z m0 345c-79.2 0-143.6-64.4-143.6-143.6 0-79.2 64.4-143.6 143.6-143.6 79.2 0 143.5 64.4 143.5 143.6 0.1 79.2-64.3 143.6-143.5 143.6z m0 0M463.6 384.2c0-17.2 9.2-33.1 24.1-41.7 14.9-8.6 33.3-8.6 48.1 0 14.9 8.6 24.1 24.5 24.1 41.7 0 17.2-9.2 33.1-24.1 41.7-14.9 8.6-33.2 8.6-48.1 0-15-8.6-24.1-24.5-24.1-41.7z m0 0M510.2 626.9c-16 0-28.9 12.9-28.9 28.9v48.8c0 16 12.9 28.9 28.9 28.9 16 0 28.9-12.9 28.9-28.9v-48.8c0-7.7-3-15-8.5-20.4-5.4-5.4-12.7-8.5-20.4-8.5zM275.7 489.8c-5.1 0-10.1 1.3-14.5 3.9l-42.3 24.4c-13.8 8-18.5 25.7-10.5 39.5s25.6 18.6 39.4 10.6l42.3-24.4c11.3-6.5 16.9-19.9 13.5-32.5-3.4-12.7-14.8-21.5-27.9-21.5z m-40.7-296c-13.1 0-24.5 8.8-27.9 21.4-3.4 12.6 2.1 26 13.5 32.5l42.3 24.4c8.9 5.2 20 5.2 28.9 0 9-5.2 14.5-14.7 14.5-25.1 0-10.3-5.5-19.9-14.5-25l-42.3-24.4c-4.5-2.5-9.5-3.8-14.5-3.8z m278.2-158.9c-7.7 0-15 3-20.4 8.5-5.4 5.4-8.5 12.8-8.5 20.4v48.8c0 16 12.9 28.9 28.9 28.9 16 0 28.9-12.9 28.9-28.9v-48.8c0-7.7-3-15-8.5-20.4-5.4-5.5-12.7-8.5-20.4-8.5z m276.7 161.5c-5.1 0-10.1 1.3-14.5 3.9l-42.3 24.4c-13.8 8-18.5 25.6-10.5 39.5 8 13.8 25.6 18.6 39.4 10.6l42.3-24.4c11.3-6.5 16.9-19.9 13.5-32.5-3.3-12.8-14.8-21.5-27.9-21.5z m-43.7 296c-13.1 0-24.5 8.8-27.9 21.4-3.4 12.6 2.1 26 13.5 32.5l42.3 24.4c8.9 5.2 20 5.2 29 0.1 9-5.2 14.5-14.7 14.5-25.1 0-10.3-5.5-19.9-14.5-25l-42.3-24.4c-4.5-2.6-9.5-3.9-14.6-3.9z m0 0"  horiz-adv-x="1024" />

    
    <glyph glyph-name="zhangdan-nor" unicode="&#59091;" d="M221.5 579.8c-12.5 0-22.6-10.1-22.6-22.6v-399.4c0-38.2 31.1-69.4 69.4-69.4 38.3 0 69.4 31.1 69.4 69.4v422H221.5zM249 579.8c-12.5 0-22.6-10.1-22.6-22.6v-399.4c0-38.2 31.1-69.4 69.4-69.4 38.3 0 69.4 31.1 69.4 69.4v422H249zM221.5 616.7c-32.8 0-59.5-26.7-59.5-59.5v-399.5c0-58.6 47.7-106.3 106.4-106.3 58.6 0 106.3 47.7 106.3 106.4V616.7H221.5z m116.3-458.9c0-38.3-31.1-69.4-69.4-69.4-38.3 0-69.4 31.2-69.4 69.4V557.2c0 12.5 10.1 22.6 22.6 22.6h116.3v-422zM825.1 169.9c0-44.9-36.5-81.5-81.5-81.5H345.3c18.8 17.8 29.8 42.8 29.8 69.4l-0.5 438.8-0.4 0.4v60c0 12.5 10.1 22.6 22.6 22.6h405.7c12.5 0 22.6-10.1 22.6-22.6v-487.1zM852.6 169.9c0-44.9-36.5-81.5-81.5-81.5H372.8c18.8 17.8 29.8 42.8 29.8 69.4l-0.5 438.8-0.4 0.4v60c0 12.5 10.1 22.6 22.6 22.6H830c12.5 0 22.6-10.1 22.6-22.6v-487.1zM693.8 253.3h-76.4V289h62.4c9.8 0 17.8 8 17.8 17.8s-8 17.8-17.8 17.8h-29l26.8 32.7c6.2 7.6 5.1 18.8-2.5 25-3.7 3-8.3 4.4-13.1 3.9-4.7-0.5-9-2.8-12-6.4l-45.2-55.2h-10.5l-45.2 55.1c-3 3.7-7.2 6-12 6.5s-9.4-0.9-13-3.9c-3.7-3-6-7.2-6.5-12s0.9-9.4 3.9-13.1l26.8-32.7h-29c-9.8 0-17.8-8-17.8-17.8s8-17.8 17.8-17.8h62.5v-35.7h-76.1c-9.8 0-17.8-8-17.8-17.8s8-17.8 17.8-17.8h76.1V150c0-9.8 8-17.8 17.8-17.8s17.8 7.9 17.8 17.7v67.8h76.4c9.8 0 17.8 8 17.8 17.8s-8 17.8-17.8 17.8zM755.6 487.6h-312c-9.8 0-17.8-8-17.8-17.8s8-17.8 17.8-17.8h312.1c9.8 0 17.8 8 17.8 17.8-0.1 9.8-8.1 17.8-17.9 17.8zM802.5 716.6H396.8c-32.8 0-59.5-26.7-59.5-59.5v-64.7l0.2-0.4-0.4-434.1c0-57.8-44.6-67.5-44.6-67.5-1.3-3.3-2-6.9-2-10.6 0-15.6 12.7-28.3 28.3-28.3h424.8c65.3 0 118.4 53.1 118.4 118.4V657c0 32.9-26.7 59.6-59.5 59.6z m22.6-546.7c0-44.9-36.5-81.5-81.5-81.5H345.3c18.8 17.8 29.8 42.8 29.8 69.4l-0.5 438.8-0.4 0.4v60c0 12.5 10.1 22.6 22.6 22.6h405.7c12.5 0 22.6-10.1 22.6-22.6v-487.1zM755.6 604.7h-312c-9.8 0-17.8-8-17.8-17.8s8-17.8 17.8-17.8h312.1c9.8 0 17.8 8 17.8 17.8-0.1 9.8-8.1 17.8-17.9 17.8z"  horiz-adv-x="1024" />

    
    <glyph glyph-name="shenfenzhengfanmian" unicode="&#59092;" d="M171.1 614h38.6v9.1H162v-47.8h9.1V614z m0-459.8h38.6v-9.1H162v47.8h9.1v-38.7zM852.4 614h-38.6v9.1h47.8v-47.8h-9.1V614z m0-459.8h-38.6v-9.1h47.8v47.8h-9.1v-38.7z m0 0M820.2 207.7c0-11.3-9.2-20.5-20.5-20.5H219.3c-11.3 0-20.5 9.2-20.5 20.5V566.5c0 11.3 9.2 20.5 20.5 20.5h580.5c5.4 0 10.6-2.2 14.5-6 3.8-3.8 6-9 6-14.5v-358.8z m0 0M506.2 429.4c3-10.3 6.2-20 10.8-28.3 5.5-9.6 12.5-17.5 22.6-22.1 4.7-2.2 16.5-3.3 28.3-3.5 12.1-0.2 24.8 0.7 29.8 2.5 11.1 4 19 11.6 24.9 21.6 5.2 8.6 8.8 18.8 12 29.9 4.7 2.5 8 6.8 10.3 12.5 2.5 6.2 3.7 14.3 3.5 23.8v3.3l-2.7 1.8c-0.8 0.5-1.8 1.2-2.7 1.7 6 31.3 4.7 51.4-14.8 69.7-27.9 20.4-91.5 21.3-119.1-1.3-14.3-16.1-15.5-30.3-12.3-68.5-0.8-0.3-1.5-0.8-2.2-1.3l-2.8-1.8v-3.3c-0.2-9.6 1-17.8 3.7-24.1 2.4-6 6-10.1 10.7-12.6z m0.3 33.2c1 0.5 2.2 0.7 3.3 0.5l5.8-0.5 1.2 5.7c1.1 6.8 3.3 13.3 6.5 19.5 9.8-1 21.6 8.3 29.8 3.8 21.1-12 47.7-8.8 65.7-5.3 2.7-5.7 4.7-11.8 6-18.3l1-5.5 5.7 0.3c1.2 0 2.3-0.2 3.3-0.5 0.3-0.2 0.8-0.3 1.3-0.5-0.2-6.1-1.2-11.3-2.7-15.3-1.5-3.5-3.5-5.8-6-6.6l-3.2-1.2-0.8-3.2c-3-11.1-6.5-21.4-11.3-29.6-4.5-7.5-10.3-13.3-18.3-16.3-3.5-1.3-14.5-1.8-25.3-1.7-10.3 0.2-20.1 1-23.1 2.3-7.3 3.3-12.6 9.3-16.8 16.8-4.5 8.1-7.6 18-10.5 28.4l-1 3.3-3.3 1c-2.7 0.8-4.7 3-6.1 6.5-1.7 4-2.5 9.3-2.7 15.6 0.5 0.5 1 0.7 1.5 0.8z m-56.4-232.2h-39.7m38.1-29.8h1.6M662 362.7l-45.1-1.5-29.6-63.7-7.1 47.4 5.2 8.5-0.3 8.8c-9.8 0.7-12.8 0.7-22.8 0l-0.3-8.8 5.2-8.5-7.2-47.1-38.1 63-40.7 0.3c-29.6-25.8-35.1-76.5-35.7-106.3h251.2c3.5 33.9-11.4 86-34.7 107.9z m0 0M550.4 233.7c0-4.2-4.3-7.6-9.5-7.6H323.2c-5.3 0-9.5 3.4-9.5 7.6V367c0 4.2 4.3 7.6 9.5 7.6h217.7c5.3 0 9.5-3.4 9.5-7.6v-133.3z m0 0M341.1 355.4h16v-8.3h-16v8.3z m0-20.6h16v-8.2h-16v8.2z m0-20.5h16v-8.3h-16v8.3z m173.2 13.3c0.2-0.1 0.5-0.3 0.7-0.5l0.7-0.5v-0.9c0-2.6-0.3-4.9-1-6.6-0.6-1.6-1.6-2.8-2.9-3.5-0.9-3.1-1.9-5.9-3.3-8.3-1.7-2.8-3.8-4.9-6.9-6-1.4-0.5-4.9-0.7-8.3-0.7-3.3 0-6.5 0.4-7.8 1-2.8 1.3-4.7 3.5-6.3 6.1-1.3 2.3-2.2 5-3 7.8-1.3 0.7-2.3 1.8-2.9 3.5-0.7 1.8-1.1 4-1 6.7v0.9l0.8 0.5c0.2 0.1 0.4 0.3 0.6 0.4-0.9 10.6-0.5 14.5 3.4 19 7.6 6.3 25.3 6 33 0.4 5.5-5.1 5.9-10.6 4.2-19.3zM498.2 297l0.1-2.4-1.4-2.4 2-13.1 8.2 17.7 12.5 0.4c6.5-6.1 10.6-20.5 9.6-29.9h-69.6c0.2 8.3 1.7 22.3 9.9 29.5l11.3-0.1 10.6-17.5 2 13-1.4 2.4 0.1 2.4c2.6 0.2 3.4 0.2 6.1 0z m9.4 34.4c-5-1-12.3-1.8-18.2 1.5-2.3 1.2-5.5-1.3-8.2-1.1-0.9-1.7-1.5-3.5-1.8-5.4l-0.3-1.6-1.6 0.1c-0.3 0-0.6 0-0.9-0.1-0.1-0.1-0.3-0.1-0.4-0.2 0-1.7 0.3-3.2 0.7-4.3 0.4-1 1-1.6 1.7-1.8l0.9-0.3 0.3-0.9c0.8-2.9 1.7-5.6 2.9-7.9 1.2-2.1 2.6-3.7 4.7-4.7 0.8-0.4 3.5-0.6 6.4-0.6 3 0 6 0.1 7 0.5 2.2 0.8 3.8 2.4 5.1 4.5 1.3 2.3 2.3 5.1 3.1 8.2l0.2 0.9 0.9 0.3c0.7 0.2 1.2 0.9 1.7 1.8 0.4 1.1 0.7 2.5 0.7 4.2-0.1 0-0.2 0.1-0.4 0.1-0.3 0.1-0.6 0.1-0.9 0.1l-1.6-0.1-0.3 1.5c-0.4 2-1 3.7-1.7 5.3z m-144.6 24h48.1v-8.3H363v8.3z m48.1-28.8H363v8.2h48.1v-8.2M363 314.3h48.1v-8.3H363v8.3z m25.5-53.9h72.4v-8.3h-72.4v8.3z m-47.4 0h42.4v-8.3h-42.4v8.3z m0 0M599 283.6H411.8c-10.1 0-19.9 4-27 11.2a38.15 38.15 0 0 0-11.2 27V425.5c0 15.4 9.2 29.3 23.4 35.2-0.5 0.6-0.8 1.4-0.8 2.2 0 0.8 4.7 12 6.9 12h25.3c2 0 7.2-8.7 8.8-11.3h15.5s15.4 30 22.6 30h82.8c7.6 0 18.8-30 18.8-30h22c21.1 0 38.2-17.1 38.2-38.2v-103.7c0.1-21-17-38.1-38.1-38.1M415 426.2c4 0 7.8 1.6 10.6 4.4 2.8 2.8 4.4 6.6 4.4 10.6s-1.6 7.8-4.4 10.6c-2.8 2.8-6.7 4.4-10.6 4.4-8.3 0-15-6.7-15.1-15 0-4 1.6-7.8 4.4-10.6 2.9-2.8 6.7-4.4 10.7-4.4m101.7 26.3c-39.5 0-71.6-31.9-71.6-71.3s32-71.3 71.6-71.3c39.5 0 71.5 31.9 71.5 71.3 0 39.3-32 71.3-71.5 71.3m0-120.1c-27 0-49 21.8-49 48.8 0 26.9 21.9 48.8 49 48.8 27 0 48.9-21.8 48.9-48.8 0-27-21.9-48.8-48.9-48.8"  horiz-adv-x="1024" />

    
    <glyph glyph-name="shenfenzhengzhengmian" unicode="&#59093;" d="M171.1 614h38.6v9.1H162v-47.8h9.1V614z m0-459.8h38.6v-9.1H162v47.8h9.1v-38.7zM852.4 614h-38.6v9.1h47.8v-47.8h-9.1V614z m0-459.8h-38.6v-9.1h47.8v47.8h-9.1v-38.7z m0 0M820.2 207.7c0-11.3-9.2-20.5-20.5-20.5H219.3c-11.3 0-20.5 9.2-20.5 20.5V566.5c0 11.3 9.2 20.5 20.5 20.5h580.5c5.4 0 10.6-2.2 14.5-6 3.8-3.8 6-9 6-14.5v-358.8z m0 0M255.5 524.4H300v-23h-44.5v23z m0-57.3H300v-23h-44.5v23z m0-57.3H300v-23h-44.5v23z m0 0M737.9 447c0.7-0.4 1.4-0.8 2.1-1.3l2.1-1.4v-2.5c0.1-7.4-0.8-13.6-2.7-18.4-1.8-4.4-4.4-7.7-7.9-9.6-2.4-8.6-5.2-16.5-9.2-23.2-4.6-7.7-10.6-13.6-19.2-16.7-3.8-1.4-13.6-2-23-1.9-9.1 0.1-18.2 1-21.8 2.7-7.8 3.6-13.3 9.6-17.4 17.1-3.6 6.4-6.1 13.9-8.3 21.8-3.7 1.9-6.4 5.2-8.2 9.6-2 4.8-2.9 11.2-2.8 18.7v2.5l2.1 1.4c0.5 0.4 1.1 0.7 1.6 1-2.4 29.5-1.5 40.4 9.5 52.8 21.3 17.5 70.3 16.9 91.9 1 14.7-14 15.7-29.6 11.2-53.6z m-44.8-85.3l0.3-6.8-4-6.6 5.6-36.6 22.9 49.1 34.8 1.2c18-17 29.5-57.1 26.7-83.2h-194c0.5 22.9 4.7 62.1 27.5 82l31.4-0.3 29.4-48.6 5.5 36.3-4 6.6 0.3 6.8c7.7 0.5 9.9 0.5 17.6 0.1z m26 95.7c-13.8-2.7-34.4-5.1-50.7 4.1-6.3 3.5-15.4-3.7-22.9-3-2.4-4.7-4.1-9.8-5.1-15l-0.8-4.4-4.4 0.4c-0.9 0.1-1.8 0-2.6-0.3-0.4-0.1-0.8-0.3-1.2-0.5 0.1-4.9 0.8-9 2.1-12 1.1-2.7 2.7-4.4 4.7-5.1l2.6-0.8 0.7-2.6c2.2-8.1 4.6-15.7 8.1-21.9 3.2-5.8 7.3-10.3 12.9-12.9 2.4-1.1 9.9-1.7 17.8-1.8 8.4-0.1 16.8 0.3 19.5 1.3 6.2 2.3 10.7 6.7 14.2 12.6 3.7 6.3 6.4 14.2 8.7 22.9l0.7 2.5 2.5 0.9c2 0.7 3.5 2.5 4.6 5.2 1.2 3 1.9 7 2 11.8-0.4 0.2-0.7 0.3-1.1 0.4-0.8 0.3-1.7 0.4-2.5 0.4l-4.3-0.3-0.8 4.3c-1.1 4.8-2.6 9.4-4.7 13.8z m-402.8 67h134v-23h-134v23z m0-57.3h134v-23h-134v23z m0-57.3h134v-23h-134v23z m71.1-149.9H589v-23H387.4v23z m0 0M255.5 259.9h118.2v-23H255.5zM599 283.6H411.8c-10.1 0-19.9 4-27 11.2a38.15 38.15 0 0 0-11.2 27V425.5c0 15.4 9.2 29.3 23.4 35.2-0.5 0.6-0.8 1.4-0.8 2.2 0 0.8 4.7 12 6.9 12h25.3c2 0 7.2-8.7 8.8-11.3h15.5s15.4 30 22.6 30h82.8c7.6 0 18.8-30 18.8-30h22c21.1 0 38.2-17.1 38.2-38.2v-103.7c0.1-21-17-38.1-38.1-38.1M415 426.2c4 0 7.8 1.6 10.6 4.4 2.8 2.8 4.4 6.6 4.4 10.6s-1.6 7.8-4.4 10.6c-2.8 2.8-6.7 4.4-10.6 4.4-8.3 0-15-6.7-15.1-15 0-4 1.6-7.8 4.4-10.6 2.9-2.8 6.7-4.4 10.7-4.4m101.7 26.3c-39.5 0-71.6-31.9-71.6-71.3s32-71.3 71.6-71.3c39.5 0 71.5 31.9 71.5 71.3 0 39.3-32 71.3-71.5 71.3m0-120.1c-27 0-49 21.8-49 48.8 0 26.9 21.9 48.8 49 48.8 27 0 48.9-21.8 48.9-48.8 0-27-21.9-48.8-48.9-48.8"  horiz-adv-x="1024" />

    
    <glyph glyph-name="renzhengweitongguo" unicode="&#59094;" d="M511.9 526.2c154.3 0 279.2-124.9 279.2-279.2 0-16.6-1.5-32.7-4.1-48.9 0.4-1.5-550.6 0.4-550.6 1.5-2.6 15.4-4.1 31.2-4.1 47.4 0.3 153.9 125.3 279.2 279.6 279.2z m0 0M511.9 467.1c126.4 0 229.2-102.7 229.2-229.2 0-13.5-1.1-27.1-3.4-39.9 0.4-1.1-451.6 0.4-451.6 1.1-2.3 12.8-3.4 25.6-3.4 38.8 0 126.5 102.7 229.2 229.2 229.2z m0 0M511.9 400.9c95.6 0 173.1-77.5 173.1-172.7 0-10.2-0.8-20.3-2.6-30.1 0.4-0.8-341.3 0-341.3 0.8-1.5 9.4-2.6 19.2-2.6 29.4 0.3 95.1 77.8 172.6 173.4 172.6z m0 0M287.2 510.4c4.1 0 7.5 3.4 7.5 7.5s-3.4 7.5-7.5 7.5-7.5-3.4-7.5-7.5 3.4-7.5 7.5-7.5zM178.1 198.1h-13.2c-1.5 0-3-1.5-3-3s1.5-3 3-3h13.2c1.5 0 3 1.5 3 3s-1.5 3-3 3z m613 0H422.7c-1.5 0-3-1.5-3-3s1.5-3 3-3h368.4c1.5 0 3 1.5 3 3s-1.5 3-3 3z m0 48.5H625.9c-1.5 0-3-1.5-3-3s1.5-3 3-3h165.2c1.5 0 3 1.5 3 3s-1.5 3-3 3z m-434.6-6h69.2c1.5 0 3 1.5 3 3s-1.5 3-3 3h-69.2c-1.5 0-3-1.5-3-3-0.1-1.5 1.4-3 3-3z m405.6 319.5l11.7 10.9c1.1 1.1 1.1 3 0 4.1-1.1 1.1-3 1.1-4.1 0L758 564.2c-1.1-1.1-1.1-3 0-4.1 1.1-1.1 3-1.1 4.1 0z m-14.3-7.9l-11.7-10.9c-1.1-1.1-1.1-3 0-4.1 1.1-1.1 3-1.1 4.1 0l11.7 10.9c1.1 1.1 1.1 3 0 4.1-1.1 1.1-2.9 1.1-4.1 0z m10.2 1.5c-1.1-1.1-1.1-3 0-4.1l10.5-11.7c1.1-1.1 3-1.1 4.1 0 1.1 1.1 1.1 3 0 4.1l-10.5 11.7c-1.1 1.1-3 1.1-4.1 0z m-11.7 6.4c1.1-1.1 3-1.1 4.1 0 1.1 1.1 1.1 3 0 4.1l-10.5 11.7c-1.1 1.1-3 1.1-4.1 0-1.1-1.1-1.1-3 0-4.1l10.5-11.7zM306.8 338.8l11.7 10.9c1.1 1.1 1.1 3 0 4.1-1.1 1.1-3 1.1-4.1 0L302.6 343c-1.1-1.1-1.1-3 0-4.1 1.2-1.2 3.1-1.2 4.2-0.1z m-14.3-7.9L280.8 320c-1.1-1.1-1.1-3 0-4.1 1.1-1.1 3-1.1 4.1 0l11.7 10.9c1.1 1.1 1.1 3 0 4.1-1.1 1.1-3 1.1-4.1 0z m10.1 1.9c-1.1-1.1-1.1-3 0-4.1l10.5-11.7c1.1-1.1 3-1.1 4.1 0 1.1 1.1 1.1 3 0 4.1l-10.5 11.7c-1 1.1-2.9 1.1-4.1 0zM280.8 355c-1.1-1.1-1.1-3 0-4.1l10.5-11.7c1.1-1.1 3-1.1 4.1 0 1.1 1.1 1.1 3 0 4.1L284.9 355c-1.5 0.8-3 0.8-4.1 0z m307.1-114.4h16.2c1.5 0 3 1.5 3 3s-1.5 3-3 3h-16.2c-1.5 0-3-1.5-3-3s1.1-3 3-3z m-292 3c0-1.5 1.5-3 3-3h39.9c1.5 0 3 1.5 3 3s-1.5 3-3 3h-39.9c-1.5 0-3-1.5-3-3z m563-45.5H822c-1.5 0-3-1.5-3-3s1.5-3 3-3h36.9c1.5 0 3 1.5 3 3s-1.5 3-3 3z m-446.4 0H399c-1.5 0-3-1.5-3-3s1.5-3 3-3h13.2c1.5 0 3 1.5 3 3 0.3 1.5-1.2 3-2.7 3z m-29.7 0H188.2c-1.5 0-3-1.5-3-3s1.5-3 3-3h194.6c1.5 0 3 1.5 3 3s-1.1 3-3 3z m0 0M379.8 420.1c0-81.3 66.2-147.5 147.5-147.5s147.5 66.2 147.5 147.5-66.2 147.5-147.5 147.5-147.5-66.2-147.5-147.5m147.5-80.2c-8.7 0-15.4 7.2-15.4 15.4 0 8.7 6.8 15.4 15.4 15.4 8.7 0 15.4-7.2 15.4-15.4s-6.7-15.4-15.4-15.4z m12.8 64.8c0-19.9-25.6-19.9-25.6 0l-5.3 77.5c0 9.8 7.9 17.7 18.1 17.7 10.2 0 18.1-7.9 18.1-17.7l-5.3-77.5z m0 0M527.3 270.7c-82.4 0-149.4 67-149.4 149.4s67 149.4 149.4 149.4 149.4-67 149.4-149.4-67-149.4-149.4-149.4z m0 295c-80.2 0-145.6-65.5-145.6-145.6 0-80.2 65.5-145.6 145.6-145.6 80.2 0 145.6 65.5 145.6 145.6 0.1 80.2-65.4 145.6-145.6 145.6z m0-227.6c-9.4 0-17.3 7.9-17.3 17.3 0 9.8 7.5 17.3 17.3 17.3 9.4 0 17.3-7.9 17.3-17.3s-7.9-17.3-17.3-17.3z m0 30.8c-7.5 0-13.5-6-13.5-13.5s6-13.5 13.5-13.5 13.5 6 13.5 13.5c0.1 7.5-6 13.5-13.5 13.5z m0 18.8c-3.8 0-7.5 1.5-10.2 4.1-3 3-4.5 7.5-4.5 12.4l-5.3 77.5c0 10.9 8.7 19.6 19.9 19.6 11.3 0 19.9-8.7 19.9-19.6l-5.3-77.5c0.2-10.4-7.3-16.5-14.5-16.5z m0 110.3c-9 0-16.2-6.8-16.2-15.8l5.3-77.5c0-9 5.6-13.2 10.9-13.2 5.3 0 10.9 4.1 10.9 13.2l5.3 77.5c0 9-7.2 15.8-16.2 15.8z m0 0"  horiz-adv-x="1024" />

    
    <glyph glyph-name="shouye-press" unicode="&#59095;" d="M767.2 676.3v-96.5c0-0.2-0.2-0.2-0.3-0.1L698.8 648l-0.1 0.1v28c0 9.4 7.7 17.1 17.1 17.1h34.7c9.3 0 16.7 2.2 16.7-7.1v-9.8zM767.2 676.3v-96.5c0-0.2-0.2-0.2-0.3-0.1L698.8 648l-0.1 0.1v28c0 9.4 7.7 17.1 17.1 17.1h34.7c9.3 0 16.7 2.2 16.7-7.1v-9.8zM760.3 716.7h-54.6c-16.8 0-30.4-13.7-30.4-30.6v-41.9c0-3.7 1.5-7.2 4.1-9.8l88-88.2c2.6-2.6 6.1-4 9.7-4 2.4 0 4.8 0.6 7 1.9 4.3 2.5 6.7 7.3 6.7 12.2V686.1c-0.1 16.9-13.7 30.6-30.5 30.6z m6.9-40.4v-96.5c0-0.2-0.2-0.2-0.3-0.1L698.8 648l-0.1 0.1v28c0 9.4 7.7 17.1 17.1 17.1h34.7c9.3 0 16.7 2.2 16.7-7.1v-9.8zM814.1 363.5l-0.2-0.7c-0.4-1.9-0.9-3-1.5-3.9l-0.4-0.6-3.3-2.8-2.6-0.4-60-0.2v-213.3c0-11.1-4.6-22.3-12.8-30.5-8-8-18.9-12.6-30.3-12.6h-83.8V273.3c0 16-6.3 31-17.5 42.2-11.3 11.1-26.2 17.3-42 17.3h-95.3c-16 0-30.8-6.1-42-17.3-11.3-11.1-17.5-26-17.5-42.2v-174.6h-83.8c-11.3 0-22.5 4.6-30.5 12.6-8.2 8.2-12.8 19.3-12.8 30.5V355l-60.6 0.2-4.6 2-1.1 1.9c-0.4 0.7-0.6 1.5-1.1 2.4l-0.2 0.9c-0.6 1.9-0.9 4.3-0.9 6.3 0 3.5 0.6 6.9 2 10.6 0.9 2.8 3 5.9 5.4 8.2l1.1 0.9 264.7 265.1c4.1 3.9 8.5 6.9 13.6 9.1 10.4 3.9 21 3.9 31.6 0 5.4-2.4 9.8-5.4 13.6-9.1l265.8-265.8c2.6-2.4 4.5-5.4 5.6-8.7 1.3-3 2-6.5 2-10 0.1-1.9-0.1-3.8-0.6-5.5zM856.4 397.5c-3.9 8.9-9.1 16.9-15.8 23.6L574.8 687c-8.5 8.5-18.2 15-28.8 19.1-21.4 8.9-46.3 8.9-68 0-10.6-4.3-20.3-10.8-28.8-19.1L183.5 421.1c-7.1-7.1-12.3-15-15.8-23.8-3.3-8-5.4-17.1-5.8-26.2l0.2-2c0-8.2 1.1-15.6 3.3-22.5 2.2-6.3 5.2-11.9 8.9-16.7l1.7-2.2c4.6-5.9 11.3-11.1 19.1-14.7 6.9-3.3 14.9-5 24-5.2h11.5v-166.1c0.2-24.1 9.7-46.8 26.6-63.9 17.1-17.1 39.8-26.4 63.9-26.4l131-0.2v222c0 3.2 1.3 6.1 3.7 8.5l2.6 1.9c1.5 1.1 3.5 1.7 5.9 1.7h95.3c3.2 0 6.1-1.3 8.4-3.5 2.2-1.9 3.7-5 3.7-8.5v-222l131.2 0.2c24.1 0 46.8 9.3 63.9 26.4 17.1 17.1 26.6 39.8 26.6 63.9v166h11.3c8.6 0 17.1 1.9 24.2 5.2 7.6 3.3 14.1 8.4 19.1 14.9l1.9 2.4c3.7 5 6.5 10.2 8.4 16l0.4 0.6c2.2 7.2 3.3 14.9 3.3 22.1 0 9.4-1.9 19.3-5.6 28.5z m-42.3-34l-0.2-0.7c-0.4-1.9-0.9-3-1.5-3.9l-0.4-0.6-3.3-2.8-2.6-0.4-60-0.2v-213.3c0-11.1-4.6-22.3-12.8-30.5-8-8-18.9-12.6-30.3-12.6h-83.8V273.3c0 16-6.3 31-17.5 42.2-11.3 11.1-26.2 17.3-42 17.3h-95.3c-16 0-30.8-6.1-42-17.3-11.3-11.1-17.5-26-17.5-42.2v-174.6h-83.8c-11.3 0-22.5 4.6-30.5 12.6-8.2 8.2-12.8 19.3-12.8 30.5V355l-60.6 0.2-4.6 2-1.1 1.9c-0.4 0.7-0.6 1.5-1.1 2.4l-0.2 0.9c-0.6 1.9-0.9 4.3-0.9 6.3 0 3.5 0.6 6.9 2 10.6 0.9 2.8 3 5.9 5.4 8.2l1.1 0.9 264.7 265.1c4.1 3.9 8.5 6.9 13.6 9.1 10.4 3.9 21 3.9 31.6 0 5.4-2.4 9.8-5.4 13.6-9.1l265.8-265.8c2.6-2.4 4.5-5.4 5.6-8.7 1.3-3 2-6.5 2-10 0.1-1.9-0.1-3.8-0.6-5.5zM443.5 459.6c3.6-31.8 28.9-57.1 60.7-60.7v60.7h-60.7zM519.8 459.6v-60.7c31.9 3.5 57.2 28.9 60.8 60.7h-60.8zM443.5 475.2h60.7V536c-31.8-3.7-57.1-28.9-60.7-60.8zM519.8 475.2h60.8c-3.6 31.8-28.9 57.1-60.8 60.7v-60.7z"  horiz-adv-x="1024" />

    
    <glyph glyph-name="shouye-nor" unicode="&#59096;" d="M814.1 365.5l-0.2-0.7c-0.4-1.9-0.9-3-1.5-3.9l-0.4-0.6-3.3-2.8-2.6-0.4-60-0.2v-213.3c0-11.1-4.6-22.3-12.8-30.5-8-8-18.9-12.6-30.3-12.6h-83.8V275.2c0 16-6.3 31-17.5 42.2-11.3 11.1-26.2 17.3-42 17.3h-95.3c-16 0-30.8-6.1-42-17.3-11.3-11.1-17.5-26-17.5-42.2v-174.6h-83.8c-11.3 0-22.5 4.6-30.5 12.6-8.2 8.2-12.8 19.3-12.8 30.5V357l-60.6 0.2-4.6 2-1.1 1.9c-0.4 0.7-0.6 1.5-1.1 2.4l-0.2 0.9c-0.6 1.9-0.9 4.3-0.9 6.3 0 3.5 0.6 6.9 2 10.6 0.9 2.8 3 5.9 5.4 8.2l1.1 0.9 264.7 265.1c4.1 3.9 8.5 6.9 13.6 9.1 10.4 3.9 21 3.9 31.6 0 5.4-2.4 9.8-5.4 13.6-9.1l265.8-265.8c2.6-2.4 4.5-5.4 5.6-8.7 1.3-3 2-6.5 2-10 0.1-2-0.1-3.8-0.6-5.5zM780.9 653.7v-96.5c0-0.2-0.2-0.2-0.3-0.1l-68.1 68.3-0.1 0.1v28c0 9.4 7.7 17.1 17.1 17.1h34.7c9.3 0 16.7 2.2 16.7-7.1v-9.8zM843.5 345.9l-0.2-0.7c-0.4-1.9-0.9-3-1.5-3.9l-0.4-0.6-3.3-2.8-2.6-0.4-60-0.2V124c0-11.1-4.6-22.3-12.8-30.5-8-8-18.9-12.6-30.3-12.6h-83.8V255.6c0 16-6.3 31-17.5 42.2-11.3 11.1-26.2 17.3-42 17.3h-95.3c-16 0-30.8-6.1-42-17.3-11.3-11.1-17.5-26-17.5-42.2V81h-83.8c-11.3 0-22.5 4.6-30.5 12.6-8.2 8.2-12.8 19.3-12.8 30.5V337.4l-60.6 0.2-4.6 2-1.1 1.9c-0.4 0.7-0.6 1.5-1.1 2.4l-0.2 0.9c-0.6 1.9-0.9 4.3-0.9 6.3 0 3.5 0.6 6.9 2 10.6 0.9 2.8 3 5.9 5.4 8.2l1.1 0.9L512 635.9c4.1 3.9 8.5 6.9 13.6 9.1 10.4 3.9 21 3.9 31.6 0 5.4-2.4 9.8-5.4 13.6-9.1l265.8-265.8c2.6-2.4 4.5-5.4 5.6-8.7 1.3-3 2-6.5 2-10 0-1.9-0.2-3.8-0.7-5.5zM856.4 399.5c-3.9 8.9-9.1 16.9-15.8 23.6L574.8 689c-8.5 8.5-18.2 15-28.8 19.1-21.4 8.9-46.3 8.9-68 0-10.6-4.3-20.3-10.8-28.8-19.1L183.5 423.1c-7.1-7.1-12.3-15-15.8-23.8-3.3-8-5.4-17.1-5.8-26.2l0.2-2c0-8.2 1.1-15.6 3.3-22.5 2.2-6.3 5.2-11.9 8.9-16.7l1.7-2.2c4.6-5.9 11.3-11.1 19.1-14.7 6.9-3.3 14.9-5 24-5.2h11.5v-166.1c0.2-24.1 9.7-46.8 26.6-63.9 17.1-17.1 39.8-26.4 63.9-26.4l131-0.2v222c0 3.2 1.3 6.1 3.7 8.5l2.6 1.9c1.5 1.1 3.5 1.7 5.9 1.7h95.3c3.2 0 6.1-1.3 8.4-3.5 2.2-1.9 3.7-5 3.7-8.5v-222l131.2 0.2c24.1 0 46.8 9.3 63.9 26.4 17.1 17.1 26.6 39.8 26.6 63.9v166h11.3c8.6 0 17.1 1.9 24.2 5.2 7.6 3.3 14.1 8.4 19.1 14.9l1.9 2.4c3.7 5 6.5 10.2 8.4 16l0.4 0.6c2.2 7.2 3.3 14.9 3.3 22.1 0 9.4-1.9 19.2-5.6 28.5z m-42.3-34l-0.2-0.7c-0.4-1.9-0.9-3-1.5-3.9l-0.4-0.6-3.3-2.8-2.6-0.4-60-0.2v-213.3c0-11.1-4.6-22.3-12.8-30.5-8-8-18.9-12.6-30.3-12.6h-83.8V275.2c0 16-6.3 31-17.5 42.2-11.3 11.1-26.2 17.3-42 17.3h-95.3c-16 0-30.8-6.1-42-17.3-11.3-11.1-17.5-26-17.5-42.2v-174.6h-83.8c-11.3 0-22.5 4.6-30.5 12.6-8.2 8.2-12.8 19.3-12.8 30.5V357l-60.6 0.2-4.6 2-1.1 1.9c-0.4 0.7-0.6 1.5-1.1 2.4l-0.2 0.9c-0.6 1.9-0.9 4.3-0.9 6.3 0 3.5 0.6 6.9 2 10.6 0.9 2.8 3 5.9 5.4 8.2l1.1 0.9 264.7 265.1c4.1 3.9 8.5 6.9 13.6 9.1 10.4 3.9 21 3.9 31.6 0 5.4-2.4 9.8-5.4 13.6-9.1l265.8-265.8c2.6-2.4 4.5-5.4 5.6-8.7 1.3-3 2-6.5 2-10 0.1-2-0.1-3.8-0.6-5.5zM800.5 634.1v-96.5c0-0.2-0.2-0.2-0.3-0.1L732 605.8l-0.1 0.1v28c0 9.4 7.7 17.1 17.1 17.1h34.7c9.3 0 16.7 2.2 16.7-7.1v-9.8zM773.9 694.1h-54.6c-16.8 0-30.4-13.7-30.4-30.6v-41.9c0-3.7 1.5-7.2 4.1-9.8l88-88.2c2.6-2.6 6.1-4 9.7-4 2.4 0 4.8 0.6 7 1.9 4.3 2.5 6.7 7.3 6.7 12.2V663.5c0 16.9-13.7 30.6-30.5 30.6z m7-40.4v-96.5c0-0.2-0.2-0.2-0.3-0.1l-68.1 68.3-0.1 0.1v28c0 9.4 7.7 17.1 17.1 17.1h34.7c9.3 0 16.7 2.2 16.7-7.1v-9.8zM463.1 461.6c3.6-31.8 28.9-57.1 60.7-60.7v60.7h-60.7zM539.4 461.6v-60.7c31.9 3.5 57.2 28.9 60.8 60.7h-60.8zM463.1 477.2h60.7V538c-31.8-3.7-57.1-29-60.7-60.8zM539.4 477.2h60.8c-3.6 31.8-28.9 57.1-60.8 60.7v-60.7z"  horiz-adv-x="1024" />

    
    <glyph glyph-name="zhangdan-press" unicode="&#59097;" d="M221.5 579.8c-12.5 0-22.6-10.1-22.6-22.6v-399.4c0-38.2 31.1-69.4 69.4-69.4 38.3 0 69.4 31.1 69.4 69.4v422H221.5zM221.5 616.7c-32.8 0-59.5-26.7-59.5-59.5v-399.5c0-58.6 47.7-106.3 106.4-106.3 58.6 0 106.3 47.7 106.3 106.4V616.7H221.5z m116.3-458.9c0-38.3-31.1-69.4-69.4-69.4-38.3 0-69.4 31.2-69.4 69.4V557.2c0 12.5 10.1 22.6 22.6 22.6h116.3v-422zM825.1 169.9c0-44.9-36.5-81.5-81.5-81.5H345.3c18.8 17.8 29.8 42.8 29.8 69.4l-0.5 438.8-0.4 0.4v60c0 12.5 10.1 22.6 22.6 22.6h405.7c12.5 0 22.6-10.1 22.6-22.6v-487.1zM693.8 253.3h-76.4V289h62.4c9.8 0 17.8 8 17.8 17.8s-8 17.8-17.8 17.8h-29l26.8 32.7c6.2 7.6 5.1 18.8-2.5 25-3.7 3-8.3 4.4-13.1 3.9-4.7-0.5-9-2.8-12-6.4l-45.2-55.2h-10.5l-45.2 55.1c-3 3.7-7.2 6-12 6.5s-9.4-0.9-13-3.9c-3.7-3-6-7.2-6.5-12s0.9-9.4 3.9-13.1l26.8-32.7h-29c-9.8 0-17.8-8-17.8-17.8s8-17.8 17.8-17.8h62.5v-35.7h-76.1c-9.8 0-17.8-8-17.8-17.8s8-17.8 17.8-17.8h76.1V150c0-9.8 8-17.8 17.8-17.8s17.8 7.9 17.8 17.7v67.8h76.4c9.8 0 17.8 8 17.8 17.8s-8 17.8-17.8 17.8zM755.6 604.7h-312c-9.8 0-17.8-8-17.8-17.8s8-17.8 17.8-17.8h312.1c9.8 0 17.8 8 17.8 17.8-0.1 9.8-8.1 17.8-17.9 17.8zM755.6 487.6h-312c-9.8 0-17.8-8-17.8-17.8s8-17.8 17.8-17.8h312.1c9.8 0 17.8 8 17.8 17.8-0.1 9.8-8.1 17.8-17.9 17.8zM802.5 716.6H396.8c-32.8 0-59.5-26.7-59.5-59.5v-64.7l0.2-0.4-0.4-434.1c0-57.8-44.6-67.5-44.6-67.5-1.3-3.3-2-6.9-2-10.6 0-15.6 12.7-28.3 28.3-28.3h424.8c65.3 0 118.4 53.1 118.4 118.4V657c0 32.9-26.7 59.6-59.5 59.6z m22.6-546.7c0-44.9-36.5-81.5-81.5-81.5H345.3c18.8 17.8 29.8 42.8 29.8 69.4l-0.5 438.8-0.4 0.4v60c0 12.5 10.1 22.6 22.6 22.6h405.7c12.5 0 22.6-10.1 22.6-22.6v-487.1z"  horiz-adv-x="1024" />

    
    <glyph glyph-name="sanbu" unicode="&#59098;" d="M512 734c-193.3 0-350-156.7-350-350s156.7-350 350-350 350 156.7 350 350-156.7 350-350 350z m137.4-528.5H361.1V233h288.3v-27.5z m41.1 41.2h-357v36.5c0 26.7 19 48.5 45.2 48.5H474v94.7c-21.4 12.2-35.7 36.5-35.7 63.1 0 41.3 31 72.8 69 72.8 38.1 0 69-31.6 66.7-72.8 2.4-26.7-12-48.5-33.3-63.1v-94.7h104.6c23.8 0 45.2-21.9 45.2-48.5v-36.5z"  horiz-adv-x="1024" />

    
    <glyph glyph-name="fenzhongshenhe" unicode="&#59099;" d="M512 734c-193.3 0-350-156.7-350-350s156.7-350 350-350 350 156.7 350 350-156.7 350-350 350z m137.4-528.5H361.1V233h288.3v-27.5z m41.1 41.2h-357v36.5c0 26.7 19 48.5 45.2 48.5H474v94.7c-21.4 12.2-35.7 36.5-35.7 63.1 0 41.3 31 72.8 69 72.8 38.1 0 69-31.6 66.7-72.8 2.4-26.7-12-48.5-33.3-63.1v-94.7h104.6c23.8 0 45.2-21.9 45.2-48.5v-36.5z"  horiz-adv-x="1024" />

    
    <glyph glyph-name="fenzhongfangkuan" unicode="&#59100;" d="M589.3 404.5c-54.8 0-99.4-44.6-99.4-99.4 0-54.8 44.6-99.4 99.4-99.4 54.8 0 99.4 44.6 99.4 99.4 0 54.9-44.6 99.4-99.4 99.4z m60.9-78.1l-67.7-66.8c-3.5-3.5-8.1-5.2-12.6-5.2-4.4 0-8.8 1.6-12.3 4.9l-30.3 28.5c-7.2 6.8-7.6 18.2-0.8 25.4 6.8 7.2 18.2 7.6 25.4 0.8l17.7-16.6 55.3 54.7c7.1 7 18.4 6.9 25.5-0.2 7-7.1 6.9-18.5-0.2-25.5zM512 734c-193.3 0-350-156.7-350-350s156.7-350 350-350 350 156.7 350 350-156.7 350-350 350z m77.3-564.2c-74.6 0-135.4 60.7-135.4 135.4 0 74.6 60.7 135.4 135.4 135.4 74.6 0 135.3-60.7 135.3-135.4 0.1-74.7-60.7-135.4-135.3-135.4zM376.8 428.5c-5 0-9 4-9 9s4 9 9 9h33.9v9h-33.9c-5 0-9 4-9 9s4 9 9 9h29.7L372 518.2c-3 4-2.2 9.1 1.7 12.1 4 3 9.6 2 12.6-2l33-43.5 33.4 45.5c3 4 8.6 4.9 12.6 1.9 4-3 4.9-8.6 2-12.6l-35.1-46.3h34.6c5 0 9-4 9-9s-4-9-9-9h-38v-9h38c5 0 9-4 9-9s-4-9-9-9h-38v-18c0-5-4-9-9-9s-9 4-9 9v18h-34z m350.7 45c0-9.9-8.1-18-18-18s-18 8.1-18 18v33.2c0 30.8-24.5 56.7-53.4 56.7H386.3c-29 0-54.4-26.5-54.4-56.7V255c0-28.7 23.9-51.2 54.4-51.2h35.5c9.9 0 18-8.1 18-18s-8.1-18-18-18h-35.5c-50.7 0-90.4 38.3-90.4 87.2V506.6c0 50.3 41.4 92.7 90.4 92.7h251.8c48.5 0 89.4-42.4 89.4-92.7v-33.1z"  horiz-adv-x="1024" />

    
    <glyph glyph-name="weitongguo" unicode="&#59101;" d="M733.6 626.3c0.3 10.3 8.3 19.6 18.3 21.3 12.6 2.7 25.9-8.3 26.2-21.3 1.7-17.9 0.3-35.9 0.7-54.2h-45.5c0.6 17.9-0.4 36.2 0.3 54.2z m-330-143.9c5 5 14.3 1.3 15.6-5 2.7-7.6-6.3-16-13.6-12-6.6 2.7-8 12.7-2 17z m0 0M406.9 350.8c22.6 20.6 52.5 33.6 83.1 33.9 31.6 1.7 63.8-9.3 88.1-29.2 4.7-3 5.3-8.6 7-13.3-15 5.7-25.9 18.3-40.5 23.9-43.2 19.9-97 10.3-131.9-21.9h-6.6c0.2 1.6 0.5 4.9 0.8 6.6z m0 0M733.3 203.2c33.9-5 68.5-10.6 100.7-23.3 10.3-4.7 21.9-9.3 26.9-20.3 3.7-8-4-15.3-10-19.6-16-10.3-34.6-15.3-52.8-19.9-43.9-10.6-88.7-16-133.3-19.9-85.1-7-170.5-8-255.6-3.7-52.5 3-105.3 7.6-157.2 17.6-24.6 5-49.2 10.3-71.8 21.3-7.6 4.3-16.6 9.6-18.3 18.9-0.3 8.6 7.3 15 14.3 18.9 17.9 10 38.2 16 58.8 18.9 0.3-16-1.3-32.2 1.3-48.2 3.3-16 19.6-25.6 34.9-24.9 141.9-1.3 283.8-0.3 425.7-0.7 16.6-1 33.6 10.6 36.2 27.6 2.2 19.5-0.5 38.4 0.2 57.3z m0 0M778.1 663.5c-8.6 9.6-22.3 10.6-34.2 10.6-134.3-0.3-268.2 0.3-402.4-0.7-14-0.7-29.6 2.7-41.9-5.6-10-6.3-15.3-18.3-15-29.9v-81.4h8.6v78.4c0 8.3 1.3 17.3 8 22.9 6 6 14.6 7.3 22.6 7 134.3-0.3 268.5 0 402.4 0 11.6-0.3 23.3 1 34.9-1 7.3-1.7 12-8.3 16.9-13-9.3 3.3-18.6 8.3-28.6 5.7-15-3-25.6-17.6-24.9-32.9v-446.3c0-10.3-0.7-22.9-11.3-28.2-13-9.3-33.2 1-33.9 16.6-2 23.6 0.3 47.2-1.3 70.8H292.3c0.3 12.3 1 24.6 0.7 36.9V524.2h-8.6v-288.4c-16.3 0-32.6 0.3-48.8 0-0.7-14.6-0.7-28.9-0.7-43.5 0.3-16-1.3-32.2 1.3-48.2 3.3-16 19.6-25.6 34.9-24.9 141.9-1.3 283.8-0.3 425.7-0.7 16.6-1 33.6 10.6 36.2 27.6 2.3 18.9-0.7 37.9 0.3 56.8V562.8c17.9 0 36.2-0.3 54.2 0.3 0.7 21.6 0 43.5 0.7 65.1 0.2 12.7-0.4 26.6-10.1 35.3z m0 0M704.7 129.1c-11.3-1.7-22.6-0.7-33.9-0.7H286c-11.3 0.3-24.6-1.7-33.6 6.6-7.3 6-8.6 16-8.6 24.9v67.8h426.4c0.3-20.6-0.7-41.2 0.3-61.8 0.7-13.3 10.6-25.6 23.9-28.2 10-2.7 19.6 2 28.9 5-5.7-5.9-11-12.6-18.6-13.6z m74.4 443.3h-45.5c0.3 17.9-0.7 35.9 0.3 53.8 0.3 10.3 8.3 19.6 18.3 21.3 12.6 2.7 25.9-8.3 26.3-21.3 1.6-17.9 0.3-35.8 0.6-53.8z m0 0M317.9 541.9l31.2-6.3 26.9 16 31.2-6.3 26.9 15.6 17.9-3.3-16.3 7.6-28.9-11v-0.3l-0.3 0.3v-0.3l-0.3 0.3-29.2 11-29.2-11v-0.3l-0.3 0.3v-0.3l-0.3 0.3-29.2 11-33.6-12v7.3l33.6 12.3 29.6-11 29.6 11 29.6-11 29.6 11 45.5-20.9 3.3-1.3 1.3-0.7-3.3-5.6-3.7 1-43.5 8.3-26.6-15.6v-0.3h-0.7l-30.9 6.3-26.9-15.6v-0.3h-0.3v0.3l-30.9 6-28.2-15-7 5 33.4 17.5z m282.4-77.5l-10 10 10 10c1 1 1.3 2 1.3 3.3 0 1.3-0.3 2.3-1.3 3.3-1.7 1.7-5 1.7-6.6 0l-10-10-10 10c-1.7 1.7-5 1.7-6.6 0-2-2-1.7-5 0-6.6l10-10-10-10c-1-1-1.3-2-1.3-3.3 0-1.3 0.3-2.3 1.3-3.3s2-1.3 3.3-1.3c1.3 0 2.3 0.3 3.3 1.3l10 10 10-10c1.7-1.7 5-1.7 6.6 0 1.7 2 1.7 5 0 6.6z m-174.1 0l-10 10 10 10c1 1 1.3 2 1.3 3.3 0 1.3-0.3 2.3-1.3 3.3-1.7 1.7-5 1.7-6.6 0l-10-10-10 10c-1.7 1.7-5 1.7-6.6 0-2-2-1.7-4.7 0-6.6l10-10-10-10c-1-1-1.3-2-1.3-3.3 0-1.3 0.3-2.3 1.3-3.3s2-1.3 3.3-1.3c1.3 0 2.3 0.3 3.3 1.3l10 10 10-10c1.7-1.7 5-1.7 6.6 0 2 2 2 5 0 6.6z m0 0"  horiz-adv-x="1024" />

    
    <glyph glyph-name="shenhezhong" unicode="&#59102;" d="M517 668.5c157 0 284.3-127.3 284.3-284.3S674 99.9 517 99.9 232.7 227.2 232.7 384.2 360 668.5 517 668.5z m0 0M516.3 614.8c127.8 0 231.3-103.6 231.3-231.3 0-127.8-103.6-231.3-231.3-231.3-127.8 0-231.3 103.5-231.3 231.3 0 127.7 103.5 231.3 231.3 231.3z m0 0M516.3 571.5c103.8 0 188-84.2 188-188s-84.2-188-188-188-188 84.2-188 188 84.1 188 188 188z m0 0M619.9 480.9c-0.3 0-25.7 0.5-52 11.2-27 10.9-44.4 23.5-44.6 23.7 0 0-4.7 5-7 5-2.1 0-6.8-5-6.8-5-0.2-0.2-17.6-12.6-44.6-23.7-26.3-10.7-51.7-11.2-52-11.2l-11.5-0.2v-115.3c0-58 74.7-119.2 114.8-119.2 40.4 0 115.1 61.2 115.1 119.2V480.8l-11.4 0.1z m-11.8-115.5c0-44.9-65.1-96.1-91.6-96.1-26.7 0-91.6 51.2-91.6 96.1v93.3c11.3 1.3 29.7 4.4 49 12.1 14.8 6 29.1 13.3 42.7 21.7 8.1-5.2 23-13.8 42.7-21.7 19.2-7.8 37.7-10.9 49-12.1v-93.3z m-88.9 85.7l-16.5-2.8c1.3-2.6 2.7-5.5 3.9-8.4h-55.1v-29.6h15.2v15.6h97.5v-14.7h15V440h-56.4c-1.2 4.2-2.5 7.9-3.6 11.1zM524 420h-15.5v-12.1h-43.6v-75h15.2v7.8h28.4v-29.3H524v29.3h29v-7.3h15.2v74.5H524V420z m-15.5-65.3h-28.4v12.5h28.4v-12.5z m0 26.1h-28.4v12.8h28.4v-12.8z m44.5-26.1h-29v12.5h29v-12.5z m0 38.9v-12.8h-29v12.8h29z m0 0M516.3 520.8c2.3 0 7-5 7-5 0.2-0.2 17.6-12.8 44.6-23.7 26.3-10.7 51.7-11.2 52-11.2l11.3-0.2v-115.3c0-58-74.7-119.2-115.1-119.2-40.1 0-114.8 61.2-114.8 119.2V480.8l11.5 0.2c0.3 0 25.7 0.5 52 11.2 27 11 44.4 23.5 44.6 23.7 0.1-0.1 4.8 4.9 6.9 4.9m0.1-251.4c26.5 0 91.6 51.2 91.6 96.1v93.3c-11.3 1.3-29.7 4.4-49 12.1-19.7 7.9-34.6 16.5-42.7 21.7-13.6-8.4-27.9-15.7-42.7-21.7-19.2-7.8-37.7-10.9-49-12.1v-93.3c0.2-44.9 65.2-96.1 91.8-96.1m2.8 181.7c1.1-3.2 2.4-7 3.6-11.2h56.4v-28.8h-15v14.7h-97.5v-15.6h-15.2v29.6h55.1c-1.1 2.9-2.6 5.8-3.9 8.4l16.5 2.9M524 420v-12.1h44.1v-74.5H553v7.3h-29v-29.3h-15.5v29.3h-28.4v-7.8h-15.2v75h43.6V420H524m0-39.2h29v12.8h-29v-12.8m-43.9 0h28.4v12.8h-28.4v-12.8m43.9-26.1h29v12.5h-29v-12.5m-43.9 0h28.4v12.5h-28.4v-12.5m36.2 173.4c-1.4 0-5.1 0-11.6-6.8-2.7-1.9-18.7-12.7-42.5-22.4-25-10.1-49.1-10.6-49.4-10.6l-11.5-0.2c-4-0.1-7.2-3.3-7.2-7.3v-115.3c0-62.8 78.3-126.6 122.1-126.6 43.9 0 122.4 63.8 122.4 126.6V480.8c0 4-3.2 7.3-7.2 7.3l-11.3 0.2c-0.3 0-24.4 0.5-49.4 10.6-23.8 9.6-39.9 20.5-42.5 22.4-6.7 6.8-10.6 6.8-11.9 6.8z m-84.2-75.8c12.1 1.8 28.1 5.2 44.4 11.8 13.8 5.6 27.1 12.3 39.9 19.9 8.2-5 22-12.7 40-19.9 16.3-6.6 32.3-10 44.4-11.8v-86.9c0-17.8-12.2-39.5-33.6-59.5-20.2-19-41.2-29.2-50.7-29.2-9.6 0-30.6 10.2-50.8 29.2-21.3 20-33.5 41.7-33.5 59.5v86.9z m87.1 6.2c-0.4 0-0.8 0-1.2-0.1l-16.5-2.8c-4-0.7-6.6-4.4-6.1-8.3h-44c-1.9 0-3.8-0.8-5.2-2.1-1.4-1.4-2.1-3.2-2.1-5.2v-29.6c0-1.9 0.8-3.8 2.1-5.2 1.4-1.4 3.2-2.1 5.2-2.1h6.1V333c0-1.9 0.8-3.8 2.1-5.2 1.4-1.4 3.2-2.1 5.2-2.1H480c1.9 0 3.8 0.8 5.2 2.1 1.4 1.4 2.2 3.2 2.2 5.2v0.4h13.8v-22c0-1.9 0.8-3.8 2.2-5.2 1.4-1.4 3.2-2.1 5.2-2.1H524c1.9 0 3.8 0.8 5.2 2.1 1.4 1.4 2.1 3.2 2.1 5.2v22h14.2c0-4 3.3-7.3 7.3-7.3H568c1.9 0 3.8 0.8 5.2 2.1 1.4 1.4 2.1 3.2 2.1 5.2v70.4h3.6c1.9 0 3.8 0.8 5.2 2.1 1.4 1.4 2.2 3.2 2.2 5.2v28.8c0 1.9-0.8 3.8-2.2 5.2-1.4 1.4-3.2 2.1-5.2 2.1H528l-2.1 6.3c-0.8 3-3.6 5-6.7 5z m12.2-40h25.4v-3.3h-25.4v3.3z m-57.4 0h27.2v-3.3H474v3.3z m0 0M856.2 130.7c-1.6 0-3.1 0.6-4.2 1.7l-13.2 13.2-13.2-13.2c-1.1-1.1-2.6-1.7-4.2-1.7s-3.1 0.6-4.2 1.7-1.7 2.6-1.8 4.2c0 1.6 0.6 3.1 1.7 4.2l13.2 13.2-13.2 13.2c-1.7 1.7-2.2 4.3-1.3 6.5 0.9 2.2 3.1 3.7 5.5 3.7 1.6 0 3.1-0.6 4.2-1.7l13.2-13.2 13.2 13.2c1.1 1.1 2.6 1.7 4.2 1.7s3.1-0.6 4.2-1.7 1.8-2.6 1.8-4.2-0.6-3.1-1.7-4.2L847.2 154l13.2-13.2c1.1-1.1 1.7-2.6 1.7-4.2s-0.6-3.1-1.7-4.2-2.6-1.7-4.2-1.7z m-429.8 20.8c-0.6 0-1.3 0.1-1.9 0.2l-32.1 8.6c-2.4 0.6-4.3 2.5-5 5-0.7 2.4 0 5 1.8 6.8l23.5 23.5c1.8 1.8 4.4 2.5 6.8 1.8 2.4-0.6 4.3-2.5 5-5l8.6-32.1c0.7-2.4 0-5-1.8-6.8-1.3-1.3-3.1-2-4.9-2zM200.1 575.7c-3.3 0-5.9 2.7-5.9 5.9v18.6h-18.6c-3.3 0-6 2.7-6 6s2.7 6 6 6h18.6v18.6c0 3.3 2.7 6 6 6s6-2.7 6-6v-18.6h18.6c3.3 0 6-2.7 6-6s-2.7-6-6-6H206v-18.6c0-3.2-2.6-5.9-5.9-5.9z m0 0M200.1 633c1.3 0 2.3-1 2.3-2.3v-22.3h22.3c1.3 0 2.3-1 2.3-2.3 0-1.3-1-2.3-2.3-2.3h-22.3v-22.3c0-1.3-1-2.3-2.3-2.3-1.3 0-2.3 1-2.3 2.3v22.3h-22.3c-1.3 0-2.3 1-2.3 2.3 0 1.3 1 2.3 2.3 2.3h22.3v22.3c0 1.3 1 2.3 2.3 2.3m217.6-439c0.3 0 0.6 0 0.9-0.1 1.2-0.3 2.1-1.2 2.4-2.4l8.6-32.1c0.3-1.2 0-2.4-0.9-3.3-0.8-0.9-2.1-1.2-3.3-0.9l-32.1 8.6c-1.2 0.3-2.1 1.2-2.4 2.4-0.3 1.2 0 2.4 0.9 3.3l23.5 23.5c0.7 0.6 1.5 1 2.4 1m403.7-20.3c0.6 0 1.2-0.2 1.6-0.7l15.8-15.8 15.8 15.8c0.4 0.4 1 0.7 1.6 0.7 0.6 0 1.2-0.2 1.6-0.7 0.4-0.4 0.7-1 0.7-1.6 0-0.6-0.2-1.2-0.7-1.6L842 154l15.8-15.8c0.4-0.4 0.7-1 0.7-1.6 0-0.6-0.2-1.2-0.7-1.6-0.4-0.4-1-0.7-1.6-0.7-0.6 0-1.2 0.2-1.6 0.7l-15.8 15.8L823 135c-0.4-0.4-1-0.7-1.6-0.7-0.6 0-1.2 0.2-1.6 0.7-0.4 0.4-0.7 1-0.7 1.6 0 0.6 0.2 1.2 0.7 1.6l15.8 15.8-15.8 15.8c-0.4 0.4-0.7 1-0.7 1.6 0 0.6 0.2 1.2 0.7 1.6 0.5 0.4 1 0.7 1.6 0.7M200.1 640.4c-5.3 0-9.6-4.3-9.6-9.6v-14.9h-14.9c-5.2-0.1-9.4-4.4-9.4-9.6 0-5.2 4.2-9.5 9.4-9.6h14.9v-14.9c0.1-5.2 4.4-9.4 9.6-9.4 5.2 0 9.5 4.2 9.6 9.4v14.9h14.9c5.2 0.1 9.4 4.4 9.4 9.6 0 5.2-4.2 9.5-9.4 9.6h-14.9v14.9c0 5.3-4.3 9.6-9.6 9.6z m217.6-439.1c-2.8 0-5.5-1.1-7.5-3.1l-23.5-23.5c-2.7-2.7-3.8-6.7-2.8-10.3 1-3.7 3.9-6.6 7.6-7.6l32.1-8.6c3.7-1 7.7 0 10.3 2.8 2.7 2.7 3.8 6.6 2.8 10.3l-8.6 32.1c-1 3.7-3.9 6.6-7.6 7.6-0.9 0.2-1.8 0.3-2.8 0.3zM821.4 181c-3.9 0-7.4-2.4-8.9-5.9-1.5-3.6-0.7-7.7 2.1-10.5l10.6-10.6-10.6-10.6c-1.8-1.8-2.8-4.3-2.8-6.8 0-2.6 1-5 2.8-6.8 1.8-1.8 4.2-2.8 6.8-2.8 2.6 0 5 1 6.8 2.8l10.6 10.6 10.6-10.6c1.8-1.8 4.3-2.8 6.8-2.8 2.6 0 5 1 6.8 2.8 1.8 1.8 2.8 4.2 2.8 6.8 0 2.6-1 5-2.8 6.8L852.4 154l10.6 10.6c3.6 3.8 3.5 9.8-0.2 13.5-3.7 3.7-9.7 3.8-13.5 0.2l-10.6-10.6-10.6 10.6c-1.7 1.7-4.1 2.7-6.7 2.7z m0 0M848.7 489.9h-10.2l7.2 7.2c0.8 0.8 0.7 2.1 0 2.8-0.8 0.8-2 0.8-2.8 0l-7.2-7.2v10.2c0 0.5-0.2 1.1-0.6 1.4-0.4 0.4-0.9 0.6-1.4 0.6-0.5 0-1.1-0.2-1.4-0.6-0.4-0.4-0.6-0.9-0.6-1.4v-10.2l-7.2 7.2c-0.8 0.8-2.1 0.7-2.8 0-0.8-0.8-0.8-2 0-2.8l7.2-7.2h-10.2c-1.1 0-2-0.9-2-2s0.9-2 2-2h10.2l-7.2-7.2c-0.8-0.8-0.7-2.1 0-2.8 0.8-0.8 2-0.8 2.8 0l7.2 7.2v-10.2c0-1.1 0.9-2 2-2 0.5 0 1.1 0.2 1.4 0.6 0.4 0.4 0.6 0.9 0.6 1.4v10.2l7.2-7.2c0.8-0.8 2.1-0.7 2.8 0 0.8 0.8 0.8 2 0 2.8l-7.2 7.2h10.2c0.7 0 1.4 0.4 1.8 1 0.4 0.6 0.4 1.4 0 2-0.4 0.6-1.1 1-1.8 1z m-634.3-209h-10.2l7.2 7.2c0.8 0.8 0.7 2.1 0 2.8-0.8 0.8-2 0.8-2.8 0l-7.2-7.2V294c0 0.5-0.2 1.1-0.6 1.4-0.4 0.4-0.9 0.6-1.4 0.6-0.5 0-1.1-0.2-1.4-0.6-0.4-0.4-0.6-0.9-0.6-1.4v-10.2l-7.2 7.2c-0.8 0.8-2.1 0.7-2.8 0-0.8-0.8-0.8-2 0-2.8l7.2-7.2h-10.2c-1.1 0-2-0.9-2-2s0.9-2 2-2h10.2l-7.2-7.2c-0.8-0.8-0.7-2.1 0-2.8 0.8-0.8 2-0.8 2.8 0l7.2 7.2V264c0-1.1 0.9-2 2-2 0.5 0 1.1 0.2 1.4 0.6 0.4 0.4 0.6 0.9 0.6 1.4v10.2l7.2-7.2c0.8-0.8 2.1-0.7 2.8 0 0.8 0.8 0.8 2 0 2.8l-7.2 7.2h10.2c1.1 0 2 0.9 2 2 0.1 1-0.9 1.9-2 1.9z m0 0"  horiz-adv-x="1024" />

    
    <glyph glyph-name="jindutiao" unicode="&#59103;" d="M512 34c-47.2 0-93.1 9.3-136.2 27.5-41.7 17.6-79.1 42.9-111.2 75s-57.4 69.6-75 111.2c-18.3 43.2-27.5 89-27.5 136.2 0 47.2 9.3 93.1 27.5 136.2 17.6 41.7 42.9 79.1 75 111.2s69.6 57.4 111.2 75c43.2 18.3 89 27.5 136.2 27.5s93.1-9.3 136.2-27.5c41.7-17.6 79.1-42.9 111.2-75 32.1-32.1 57.4-69.6 75-111.2 18.3-43.2 27.5-89 27.5-136.2 0-47.2-9.3-93.1-27.5-136.2-17.6-41.7-42.9-79.1-75-111.2-32.1-32.1-69.6-57.4-111.2-75-43.1-18.2-89-27.5-136.2-27.5z m0 662.2c-83.4 0-161.8-32.5-220.7-91.4S199.8 467.4 199.8 384s32.5-161.8 91.4-220.7c59-59 137.4-91.4 220.7-91.4s161.8 32.5 220.7 91.4c59 59 91.4 137.4 91.4 220.7s-32.5 161.8-91.4 220.7c-58.8 59-137.2 91.5-220.6 91.5zM704.4 186.3H319.6c-2.9 0-5.3 2.4-5.3 5.3V576.4c0 2.9 2.4 5.3 5.3 5.3h384.9c2.9 0 5.3-2.4 5.3-5.3v-384.9c-0.1-2.8-2.5-5.2-5.4-5.2z"  horiz-adv-x="1024" />

    
    <glyph glyph-name="jindutiao1" unicode="&#59104;" d="M512 34c-47.2 0-93.1 9.3-136.2 27.5-41.7 17.6-79.1 42.9-111.2 75s-57.4 69.6-75 111.2c-18.3 43.2-27.5 89-27.5 136.2 0 47.2 9.3 93.1 27.5 136.2 17.6 41.7 42.9 79.1 75 111.2s69.6 57.4 111.2 75c43.2 18.3 89 27.5 136.2 27.5s93.1-9.3 136.2-27.5c41.7-17.6 79.1-42.9 111.2-75 32.1-32.1 57.4-69.6 75-111.2 18.3-43.2 27.5-89 27.5-136.2 0-47.2-9.3-93.1-27.5-136.2-17.6-41.7-42.9-79.1-75-111.2-32.1-32.1-69.6-57.4-111.2-75-43.1-18.2-89-27.5-136.2-27.5z m0 662.2c-83.4 0-161.8-32.5-220.7-91.4S199.8 467.4 199.8 384s32.5-161.8 91.4-220.7c59-59 137.4-91.4 220.7-91.4s161.8 32.5 220.7 91.4c59 59 91.4 137.4 91.4 220.7s-32.5 161.8-91.4 220.7c-58.8 59-137.2 91.5-220.6 91.5zM508.3 108.1L236.1 380.3c-2.1 2.1-2.1 5.4 0 7.5l272.1 272.1c2.1 2.1 5.4 2.1 7.5 0l272.1-272.1c2.1-2.1 2.1-5.4 0-7.5L515.7 108.1c-2-2-5.4-2-7.4 0z"  horiz-adv-x="1024" />

    
    <glyph glyph-name="jiebangzhong" unicode="&#59105;" d="M281.9 632.7l11.7 10.9c1.1 1.1 1.1 3 0 4.1-1.1 1.1-3 1.1-4.1 0l-11.7-10.9c-1.1-1.1-1.1-3 0-4.1 1.1-1.2 2.9-1.2 4.1 0zM267.6 624.8l-11.7-10.9c-1.1-1.1-1.1-3 0-4.1 1.1-1.1 3-1.1 4.1 0l11.7 10.9c1.1 1.1 1.1 3 0 4.1-1.1 1.1-3 1.1-4.1 0zM277.7 626.3c-1.1-1.1-1.1-3 0-4.1l10.5-11.7c1.1-1.1 3-1.1 4.1 0 1.1 1.1 1.1 3 0 4.1l-10.5 11.7c-1.1 1.1-2.9 1.1-4.1 0zM266.1 632.7c1.1-1.1 3-1.1 4.1 0 1.1 1.1 1.1 3 0 4.1l-10.5 11.7c-1.1 1.1-3 1.1-4.1 0-1.1-1.1-1.1-3 0-4.1l10.5-11.7zM178.2 103.9H165c-1.5 0-3-1.5-3-3s1.5-3 3-3h13.2c1.5 0 3 1.5 3 3s-1.5 3-3 3zM791.2 103.9H422.8c-1.5 0-3-1.5-3-3s1.5-3 3-3h368.4c1.5 0 3 1.5 3 3 0.1 1.5-1.4 3-3 3zM859 103.9h-36.9c-1.5 0-3-1.5-3-3s1.5-3 3-3H859c1.5 0 3 1.5 3 3s-1.5 3-3 3zM412.6 103.9h-13.5c-1.5 0-3-1.5-3-3s1.5-3 3-3h13.2c1.5 0 3 1.5 3 3 0.4 1.5-1.1 3-2.7 3zM382.9 103.9H188.3c-1.5 0-3-1.5-3-3s1.5-3 3-3h194.6c1.5 0 3 1.5 3 3s-1.1 3-3 3zM483.8 653.9c6 10.5 16.2 16.2 28.2 16.2s22.2-6 28.2-16.2l275.5-477.6c6-10.5 6-22.2 0-32.7-6-10.5-16.2-16.2-28.2-16.2h-551c-12 0-22.2 6-28.2 16.2-6 10.5-6 22.2 0 32.7l275.5 477.6z m0 0M489.4 552.7c4.9 8.3 13.2 13.2 23 13.2s18.1-4.9 23-13.2l222.8-385.8c4.9-8.3 4.9-18.1 0-26.3-4.9-8.3-13.2-13.2-23-13.2h-446c-9.8 0-18.1 4.9-23 13.2-4.9 8.3-4.9 18.1 0 26.3l223.2 385.8z m0 0M494.7 450.3c3.8 6.4 10.2 10.2 17.3 10.2 7.2 0 13.5-3.8 17.3-10.2l169.4-292.8c3.8-6.4 3.8-13.5 0-19.9-3.8-6.4-10.2-10.2-17.3-10.2H342.6c-7.5 0-13.5 3.8-17.3 10.2-3.8 6.4-3.8 13.5 0 19.9l169.4 292.8z m0 0M360.7 174.8h-12.4l9 9c1.1 1.1 1.1 2.6 0 3.4-1.1 0.8-2.6 1.1-3.4 0l-9-9v12.4c0 1.5-1.1 2.6-2.6 2.6s-2.6-1.1-2.6-2.6v-12.4l-9 9c-1.1 1.1-2.6 1.1-3.4 0-1.1-1.1-1.1-2.6 0-3.4l9-9h-12.4c-1.5 0-2.6-1.1-2.6-2.6s1.1-2.6 2.6-2.6h12.4l-9-9c-1.1-1.1-1.1-2.6 0-3.4 1.1-1.1 2.6-1.1 3.4 0l8.7 9v-12.4c0-1.5 1.1-2.6 2.6-2.6s2.6 1.1 2.6 2.6v12.4l9-9c1.1-1.1 2.6-1.1 3.4 0 1.1 1.1 1.1 2.6 0 3.4l-9 9h12.4c1.5 0 2.6 1.1 2.6 2.6s-1.2 2.6-2.3 2.6zM805.6 204.5l11.7 10.9c1.1 1.1 1.1 3 0 4.1-1.1 1.1-3 1.1-4.1 0l-11.7-10.9c-1.1-1.1-1.1-3 0-4.1 1.1-1.1 3-1.1 4.1 0zM791.3 196.6l-11.7-10.9c-1.1-1.1-1.1-3 0-4.1 1.1-1.1 3-1.1 4.1 0l11.7 10.9c1.1 1.1 1.1 3 0 4.1-1 1.2-2.9 1.2-4.1 0zM801.5 198.1c-1.1-1.1-1.1-3 0-4.1l10.5-11.7c1.1-1.1 3-1.1 4.1 0 1.1 1.1 1.1 3 0 4.1l-10.5 11.7c-1.1 1.2-3 1.2-4.1 0zM789.8 204.5c1.1-1.1 3-1.1 4.1 0 1.1 1.1 1.1 3 0 4.1l-10.5 11.7c-1.1 1.1-3 1.1-4.1 0-1.1-1.1-1.1-3 0-4.1l10.5-11.7zM512 479.5c-87 0-157.5-70.5-157.5-157.5S425 164.5 512 164.5 669.5 235 669.5 322 599 479.5 512 479.5zM512 299.4c-6.7 0-13.1 3-17.4 8.3l-0.1 0.1-0.9 0.9-58.8 75.8c-1.6 2.1-2.4 4.8-2 7.4 0.3 2.7 1.7 5 3.8 6.7 3.6 2.8 8.6 2.8 12.2 0l76.3-58.1c0.9-0.7 1.5-1.4 2-1.9l0.1-0.1c4.6-4.3 7.3-10.3 7.3-16.5 0.1-12.5-10.1-22.6-22.5-22.6z m-12.7 14l0.1-0.1 0.6-0.6 0.2-0.2c2.9-3.6 7.2-5.7 11.8-5.7 8.4 0 15.2 6.8 15.2 15.2 0 4.3-1.8 8.3-5 11.2l-0.5 0.5c-0.3 0.4-0.6 0.7-0.9 0.9l-76.4 58.1c-1 0.8-2.3 0.8-3.3 0-0.6-0.4-0.9-1.1-1-1.8-0.1-0.7 0.1-1.4 0.5-2l58.7-75.5zM409.6 419.7c-11.8-12.4-21.2-26.7-27.9-42.5-7.4-17.4-11.1-36-11.1-55 0-19.1 3.7-37.6 11.1-55 7.1-16.8 17.3-32 30.3-44.9 13-13 28.1-23.2 44.9-30.3 17.4-7.4 35.9-11.1 55-11.1s37.6 3.7 55 11.1c16.8 7.1 32 17.3 44.9 30.3 13 13 23.2 28.1 30.3 45 7.4 17.4 11.1 36 11.1 55 0 19.1-3.7 37.6-11.1 55-7.1 16.8-17.3 32-30.3 44.9s-28.1 23.2-44.9 30.3c-17.4 7.4-35.9 11.1-55 11.1h-2.8v-56h5.7v50.2l3.6-0.2c34.8-1.7 67.4-16.5 91.6-41.7 24.3-25.4 37.7-58.6 37.7-93.7 0-74.8-60.9-135.7-135.7-135.7-74.8 0-135.7 60.9-135.7 135.7 0 18.3 3.6 36 10.7 52.8 6.4 15.1 15.4 28.8 26.7 40.7l-4.1 4z"  horiz-adv-x="1024" />

    
    <glyph glyph-name="fangkuanchenggong" unicode="&#59106;" d="M440.5 638.9c6 10.5 16.1 16.1 28.1 16.1s22.1-6 28.1-16.1l274-475c6-10.5 6-22.1 0-32.6s-16.1-16.1-28.1-16.1h-548c-12 0-22.1 6-28.1 16.1-6 10.5-6 22.1 0 32.6l274 475z m0 0M446.1 538.2c4.9 8.2 13.1 13.1 22.8 13.1 9.7 0 18-4.9 22.8-13.1l221.6-383.7c4.9-8.2 4.9-18 0-26.2s-13.1-13.1-22.8-13.1H247c-9.7 0-18 4.9-22.8 13.1-4.9 8.2-4.9 18 0 26.2l221.9 383.7z m0 0M451.4 436.4c3.7 6.4 10.1 10.1 17.2 10.1s13.5-3.7 17.2-10.1l168.4-291.2c3.7-6.4 3.7-13.5 0-19.8-3.7-6.4-10.1-10.1-17.2-10.1H300.1c-7.5 0-13.5 3.7-17.2 10.1-3.7 6.4-3.7 13.5 0 19.8l168.5 291.2z m0 0M699.5 390.5c1.6 0 3.1-0.7 4-1.8l0.2-0.2 0.2-0.2c1.1-1.1 1.8-2.7 1.8-4.4 0-1.7-0.7-3.3-2.1-4.7L466.9 142.3c-1.3-1.3-2.8-2-4.4-2-0.4 0-0.8 0-1.2 0.1l-4.1 0.8-0.5-1.1c-0.9 0.3-1.8 0.9-2.7 1.8L258 338.1c-1 1-2.1 2.6-2.1 4.7 0 1.7 0.7 3.2 2.1 4.6 1.3 1.2 3 1.8 4.8 1.8 1.7 0 3.3-0.6 4.4-1.8L457 157.6l3.9-3.9 3.9 3.9 230.6 230.6c1.1 1.5 2.8 2.3 4.1 2.3m0 5.5c-3 0-6-1.5-8.2-3.7L460.7 161.6 270.9 351.4c-2.2 2.2-5.2 3.4-8.3 3.4s-6.1-1.1-8.6-3.4c-2.6-2.6-3.7-5.6-3.7-8.6 0-3.4 1.5-6.4 3.7-8.6l196.1-196.1c2.6-2.6 5.6-3.7 8.6-3.7 0.4 0 1.1 0 1.5 0.7 0.7-0.1 1.5-0.2 2.2-0.2 3 0 5.8 1.2 8.2 3.6l236.6 236.9c2.6 2.6 3.7 5.6 3.7 8.6s-1.1 6-3.4 8.2c-1.6 2.3-4.6 3.8-8 3.8zM733.6 424.9c3.9 0 7.3-3.4 7.6-7.4-0.1-4.7-3.1-7.8-7.6-7.8s-7.6 3.1-7.6 7.6 3.1 7.6 7.6 7.6m0 5.5c-7.5 0-13.1-5.6-13.1-13.1s5.6-13.1 13.1-13.1 13.1 5.6 13.1 13.5c-0.4 7.1-6.4 12.7-13.1 12.7zM822.3 513.4c1 0 2.8-0.2 4.2-1.7l0.1-0.1 0.1-0.1c1-1 2.1-2.6 2.1-4.7 0-1.7-0.7-3.3-2.1-4.7l-53.2-53.2-0.2-0.2-0.2-0.2c-0.9-1.1-2.4-1.8-4-1.8-1.7 0-3.3 0.7-4.7 2.1-1.8 1.8-2.1 3.1-2.1 4.7s0.3 2.9 2.1 4.7l53.2 53.2c1.2 1.3 2.9 2 4.7 2m0 5.5c-3.2 0-6.3-1.2-8.6-3.5l-53.2-53.2c-2.6-2.6-3.7-5.2-3.7-8.6 0-3.4 1.1-6 3.7-8.6 2.6-2.6 5.6-3.7 8.6-3.7 3.4 0 6.4 1.5 8.2 3.7l53.2 53.2c2.6 2.6 3.7 5.6 3.7 8.6 0 3.4-1.5 6.4-3.7 8.6-2.1 2.4-5.2 3.5-8.2 3.5zM738.1 235.8h-12.4l9 9c1.1 1.1 1.1 2.6 0 3.4-1.1 1.1-2.6 1.1-3.4 0l-9-9v12.4c0 1.5-1.1 2.6-2.6 2.6s-2.6-1.1-2.6-2.6v-12.4l-9 9c-1.1 1.1-2.6 1.1-3.4 0-1.1-1.1-1.1-2.6 0-3.4l9-9H701c-1.5 0-2.6-1.1-2.6-2.6s1.1-2.6 2.6-2.6h12.4l-9-9c-1.1-1.1-1.1-2.6 0-3.4 1.1-0.7 2.6-1.1 3.4 0l9 9v-12.4c0-1.5 1.1-2.6 2.6-2.6s2.6 1.1 2.6 2.6v12.4l9-9c1.1-1.1 2.6-1.1 3.4 0 1.1 1.1 1.1 2.6 0 3.4l-9 9h12.4c1.5 0 2.6 1.1 2.6 2.6 0.3 1.4-0.8 2.6-2.3 2.6z m-420-73.4h-12.4l9 9c1.1 1.1 1.1 2.6 0 3.4-1.1 0.7-2.6 1.1-3.4 0l-9-9v12.4c0 1.5-1.1 2.6-2.6 2.6s-2.6-1.1-2.6-2.6v-12.4l-9 9c-1.1 1.1-2.6 1.1-3.4 0-1.1-1.1-1.1-2.6 0-3.4l9-9h-12.4c-1.5 0-2.6-1.1-2.6-2.6s1.1-2.6 2.6-2.6h12.4l-9-9c-1.1-1.1-1.1-2.6 0-3.4 1.1-1.1 2.6-1.1 3.4 0l8.6 9v-12.4c0-1.5 1.1-2.6 2.6-2.6s2.6 1.1 2.6 2.6v12.4l9-9c1.1-1.1 2.6-1.1 3.4 0 1.1 1.1 1.1 2.6 0 3.4l-9 9h12.4c1.5 0 2.6 1.1 2.6 2.6s-1.1 2.6-2.2 2.6z m0 0M272.1 561.8h-24v23.6c0 3.7-2.6 6.4-6.4 6.4-3.7 0-6.4-2.6-6.4-6.4v-23.6h-23.6c-3.7 0-6.4-2.6-6.4-6.4 0-3.7 2.6-6.4 6.4-6.4h23.6v-23.6c0-3.7 2.6-6.4 6.4-6.4 3.7 0 6.4 2.6 6.7 6.4V549h22.8c1.5-0.4 3 0 4.5 0.7 1.5 1.1 2.6 3 2.6 5.2 0.1 3.9-2.9 6.9-6.2 6.9z m-0.4-9h-27.3v-27.3c0-1.5-1.1-2.6-2.6-2.6s-2.6 1.1-2.6 2.6v27.3h-27.3c-1.5 0-2.6 1.1-2.6 2.6s1.1 2.6 2.6 2.6h27.3v27.3c0 1.5 1.1 2.6 2.6 2.6s2.6-1.1 2.6-2.6V558h27.7c1.5 0 2.6-1.5 2.6-3 0-1.4-1.1-2.9-3-2.2zM855.6 166.9h-32.9v32.9c0 3.7-2.6 6.4-6.4 6.4h-1.9c-3.7 0-6.4-2.6-6.4-6.4v-32.9h-32.9c-3.7 0-6.4-2.6-6.4-6.4v-1.9c0-3.7 2.6-6.4 6.4-6.4H808v-32.9c0-3.7 2.6-6.4 6.4-6.4h1.9c3.7 0 6.4 2.6 6.4 6.4v32.9h32.9c3.7 0 6.4 2.6 6.4 6.4v1.9c0 3.8-2.6 6.4-6.4 6.4z m2.7-8.2c0-1.5-1.1-2.6-2.6-2.6H819v-36.7c0-1.5-1.1-2.6-2.6-2.6h-1.9c-1.5 0-2.6 1.1-2.6 2.6V156h-36.7c-1.5 0-2.6 1.1-2.6 2.6v1.9c0 1.5 1.1 2.6 2.6 2.6h36.7v36.7c0 1.5 1.1 2.6 2.6 2.6h1.9c1.5 0 2.6-1.1 2.6-2.6v-36.7h36.7c1.5 0 2.6-1.1 2.6-2.6v-1.8z"  horiz-adv-x="1024" />

    
    <glyph glyph-name="tongxunlu" unicode="&#59107;" d="M697.9 221.6c-7.8 18.8-21.3 37.3-39.2 53.4-14 12.6-30.8 23.7-48.3 32.1 17.3 11.2 32 26.4 42.5 43.9 12.5 20.8 19.1 44.6 19.1 69 0 74.5-60.6 135.1-135.1 135.1S401.8 494.5 401.8 420c0-24.4 6.7-48.3 19.2-69.1 10.6-17.5 25.4-32.7 42.7-43.9-17.5-8.5-34.1-19.5-48.1-32.1-18-16.1-31.5-34.5-39.3-53.3l-2.6-6.3h42.7l1.3 2.4c20 37.7 67.1 65.3 114.4 67.1h9.8c47.3-1.8 94.4-29.4 114.4-67.1l1.3-2.4h42.7l-2.4 6.3zM536.7 321c-55.6 0-100.9 45.2-100.9 100.9 0 55.6 45.3 100.9 100.9 100.9 55.6 0 100.9-45.2 100.9-100.9S592.4 321 536.7 321zM803.3 34H271.6c-26.5 0-48 21.5-48 48v80.8h34V82c0-7.8 6.3-14.1 14.1-14.1h531.7c7.8 0 14.1 6.3 14.1 14.1V686c0 7.8-6.3 14.1-14.1 14.1H271.6c-7.8 0-14.1-6.3-14.1-14.1v-80.8h-34V686c0 26.5 21.5 48 48 48h531.7c26.5 0 48-21.5 48-48v-604c0.1-26.5-21.4-48-47.9-48zM291.5 490.5H189.7c-9.4 0-17 7.6-17 17s7.6 17 17 17h101.9c9.4 0 17-7.6 17-17-0.1-9.4-7.7-17-17.1-17zM291.5 366.8H189.7c-9.4 0-17 7.6-17 17s7.6 17 17 17h101.9c9.4 0 17-7.6 17-17-0.1-9.4-7.7-17-17.1-17zM291.5 243.1H189.7c-9.4 0-17 7.6-17 17s7.6 17 17 17h101.9c9.4 0 17-7.6 17-17s-7.7-17-17.1-17z"  horiz-adv-x="1024" />

    


  </font>
</defs>
</svg>
